<?xml version="1.0" encoding="UTF-8" standalone="no"?>
<svg
   xmlns:dc="http://purl.org/dc/elements/1.1/"
   xmlns:cc="http://creativecommons.org/ns#"
   xmlns:rdf="http://www.w3.org/1999/02/22-rdf-syntax-ns#"
   xmlns:svg="http://www.w3.org/2000/svg"
   xmlns="http://www.w3.org/2000/svg"
   viewBox="0 0 1738.6667 1005.3333"
   height="1005.3333"
   width="1738.6667"
   xml:space="preserve"
   id="svg2"
   version="1.1"><metadata
     id="metadata8"><rdf:RDF><cc:Work
         rdf:about=""><dc:format>image/svg+xml</dc:format><dc:type
           rdf:resource="http://purl.org/dc/dcmitype/StillImage" /></cc:Work></rdf:RDF></metadata><defs
     id="defs6"><clipPath
       id="clipPath36"
       clipPathUnits="userSpaceOnUse"><path
         id="path34"
         d="M 177.96,0 H 1126.3 V 754.5 H 177.96 Z" /></clipPath><clipPath
       id="clipPath48"
       clipPathUnits="userSpaceOnUse"><path
         id="path46"
         d="M 222.96,35.56 H 936.43 V 749.03 H 222.96 Z" /></clipPath></defs><g
     transform="matrix(1.3333333,0,0,-1.3333333,0,1005.3333)"
     id="g10"><g
       id="g12" /><g
       id="g14" /><g
       id="g16" /><g
       id="g18" /><g
       id="g20" /><g
       id="g22" /><g
       id="g24" /><g
       id="g26" /><g
       id="g28" /><g
       id="g30"><g
         clip-path="url(#clipPath36)"
         id="g32"><path
           id="path38"
           style="fill:#ffffff;fill-opacity:1;fill-rule:nonzero;stroke:#ffffff;stroke-width:1.07000005;stroke-linecap:round;stroke-linejoin:round;stroke-miterlimit:10;stroke-dasharray:none;stroke-opacity:1"
           d="M 177.96,0 H 1126.3 V 754.5 H 177.96 Z" /></g></g><g
       id="g40" /><g
       id="g42"><g
         clip-path="url(#clipPath48)"
         id="g44"><path
           id="path50"
           style="fill:#ffffff;fill-opacity:1;fill-rule:nonzero;stroke:none"
           d="M 222.96,35.56 H 936.43 V 749.03 H 222.96 Z" /><path
           id="path52"
           style="fill:none;stroke:#ebebeb;stroke-width:0.52999997;stroke-linecap:butt;stroke-linejoin:round;stroke-miterlimit:10;stroke-dasharray:none;stroke-opacity:1"
           d="M 222.96,58.72 H 936.43" /><path
           id="path54"
           style="fill:none;stroke:#ebebeb;stroke-width:0.52999997;stroke-linecap:butt;stroke-linejoin:round;stroke-miterlimit:10;stroke-dasharray:none;stroke-opacity:1"
           d="M 222.96,213.15 H 936.43" /><path
           id="path56"
           style="fill:none;stroke:#ebebeb;stroke-width:0.52999997;stroke-linecap:butt;stroke-linejoin:round;stroke-miterlimit:10;stroke-dasharray:none;stroke-opacity:1"
           d="M 222.96,367.58 H 936.43" /><path
           id="path58"
           style="fill:none;stroke:#ebebeb;stroke-width:0.52999997;stroke-linecap:butt;stroke-linejoin:round;stroke-miterlimit:10;stroke-dasharray:none;stroke-opacity:1"
           d="M 222.96,522.01 H 936.43" /><path
           id="path60"
           style="fill:none;stroke:#ebebeb;stroke-width:0.52999997;stroke-linecap:butt;stroke-linejoin:round;stroke-miterlimit:10;stroke-dasharray:none;stroke-opacity:1"
           d="M 222.96,676.44 H 936.43" /><path
           id="path62"
           style="fill:none;stroke:#ebebeb;stroke-width:0.52999997;stroke-linecap:butt;stroke-linejoin:round;stroke-miterlimit:10;stroke-dasharray:none;stroke-opacity:1"
           d="M 356.13,35.56 V 749.02" /><path
           id="path64"
           style="fill:none;stroke:#ebebeb;stroke-width:0.52999997;stroke-linecap:butt;stroke-linejoin:round;stroke-miterlimit:10;stroke-dasharray:none;stroke-opacity:1"
           d="M 532.86,35.56 V 749.02" /><path
           id="path66"
           style="fill:none;stroke:#ebebeb;stroke-width:0.52999997;stroke-linecap:butt;stroke-linejoin:round;stroke-miterlimit:10;stroke-dasharray:none;stroke-opacity:1"
           d="M 709.6,35.56 V 749.02" /><path
           id="path68"
           style="fill:none;stroke:#ebebeb;stroke-width:0.52999997;stroke-linecap:butt;stroke-linejoin:round;stroke-miterlimit:10;stroke-dasharray:none;stroke-opacity:1"
           d="M 886.33,35.56 V 749.02" /><path
           id="path70"
           style="fill:none;stroke:#ebebeb;stroke-width:1.07000005;stroke-linecap:butt;stroke-linejoin:round;stroke-miterlimit:10;stroke-dasharray:none;stroke-opacity:1"
           d="M 222.96,135.94 H 936.43" /><path
           id="path72"
           style="fill:none;stroke:#ebebeb;stroke-width:1.07000005;stroke-linecap:butt;stroke-linejoin:round;stroke-miterlimit:10;stroke-dasharray:none;stroke-opacity:1"
           d="M 222.96,290.37 H 936.43" /><path
           id="path74"
           style="fill:none;stroke:#ebebeb;stroke-width:1.07000005;stroke-linecap:butt;stroke-linejoin:round;stroke-miterlimit:10;stroke-dasharray:none;stroke-opacity:1"
           d="M 222.96,444.8 H 936.43" /><path
           id="path76"
           style="fill:none;stroke:#ebebeb;stroke-width:1.07000005;stroke-linecap:butt;stroke-linejoin:round;stroke-miterlimit:10;stroke-dasharray:none;stroke-opacity:1"
           d="M 222.96,599.23 H 936.43" /><path
           id="path78"
           style="fill:none;stroke:#ebebeb;stroke-width:1.07000005;stroke-linecap:butt;stroke-linejoin:round;stroke-miterlimit:10;stroke-dasharray:none;stroke-opacity:1"
           d="M 267.77,35.56 V 749.02" /><path
           id="path80"
           style="fill:none;stroke:#ebebeb;stroke-width:1.07000005;stroke-linecap:butt;stroke-linejoin:round;stroke-miterlimit:10;stroke-dasharray:none;stroke-opacity:1"
           d="M 444.5,35.56 V 749.02" /><path
           id="path82"
           style="fill:none;stroke:#ebebeb;stroke-width:1.07000005;stroke-linecap:butt;stroke-linejoin:round;stroke-miterlimit:10;stroke-dasharray:none;stroke-opacity:1"
           d="M 621.23,35.56 V 749.02" /><path
           id="path84"
           style="fill:none;stroke:#ebebeb;stroke-width:1.07000005;stroke-linecap:butt;stroke-linejoin:round;stroke-miterlimit:10;stroke-dasharray:none;stroke-opacity:1"
           d="M 797.96,35.56 V 749.02" /><path
           id="path86"
           style="fill:#000000;fill-opacity:1;fill-rule:nonzero;stroke:none"
           d="m 599.51,145.2 c 0,1.25 1.03,2.28 2.28,2.28 1.25,0 2.27,-1.03 2.27,-2.28 0,-1.25 -1.02,-2.27 -2.27,-2.27 -1.25,0 -2.28,1.02 -2.28,2.27" /><path
           id="path88"
           style="fill:#000000;fill-opacity:1;fill-rule:nonzero;stroke:none"
           d="m 253.12,716.59 c 0,1.25 1.02,2.28 2.27,2.28 1.26,0 2.28,-1.03 2.28,-2.28 0,-1.25 -1.02,-2.27 -2.28,-2.27 -1.25,0 -2.27,1.02 -2.27,2.27" /><path
           id="path90"
           style="fill:#000000;fill-opacity:1;fill-rule:nonzero;stroke:none"
           d="m 576.54,401.56 c 0,1.25 1.02,2.27 2.27,2.27 1.25,0 2.28,-1.02 2.28,-2.27 0,-1.26 -1.03,-2.28 -2.28,-2.28 -1.25,0 -2.27,1.02 -2.27,2.28" /><path
           id="path92"
           style="fill:#000000;fill-opacity:1;fill-rule:nonzero;stroke:none"
           d="m 677.28,132.85 c 0,1.25 1.02,2.27 2.27,2.27 1.25,0 2.28,-1.02 2.28,-2.27 0,-1.25 -1.03,-2.28 -2.28,-2.28 -1.25,0 -2.27,1.03 -2.27,2.28" /><path
           id="path94"
           style="fill:#000000;fill-opacity:1;fill-rule:nonzero;stroke:none"
           d="m 737.36,420.09 c 0,1.25 1.03,2.27 2.28,2.27 1.25,0 2.27,-1.02 2.27,-2.27 0,-1.25 -1.02,-2.28 -2.27,-2.28 -1.25,0 -2.28,1.03 -2.28,2.28" /><path
           id="path96"
           style="fill:#000000;fill-opacity:1;fill-rule:nonzero;stroke:none"
           d="m 735.6,441.71 c 0,1.25 1.02,2.27 2.27,2.27 1.25,0 2.28,-1.02 2.28,-2.27 0,-1.25 -1.03,-2.28 -2.28,-2.28 -1.25,0 -2.27,1.03 -2.27,2.28" /><path
           id="path98"
           style="fill:#000000;fill-opacity:1;fill-rule:nonzero;stroke:none"
           d="m 507.61,472.59 c 0,1.25 1.03,2.28 2.28,2.28 1.25,0 2.27,-1.03 2.27,-2.28 0,-1.25 -1.02,-2.27 -2.27,-2.27 -1.25,0 -2.28,1.02 -2.28,2.27" /><path
           id="path100"
           style="fill:#000000;fill-opacity:1;fill-rule:nonzero;stroke:none"
           d="m 497.01,500.39 c 0,1.25 1.02,2.28 2.27,2.28 1.26,0 2.28,-1.03 2.28,-2.28 0,-1.25 -1.02,-2.27 -2.28,-2.27 -1.25,0 -2.27,1.02 -2.27,2.27" /><path
           id="path102"
           style="fill:#000000;fill-opacity:1;fill-rule:nonzero;stroke:none"
           d="m 758.57,290.37 c 0,1.25 1.03,2.27 2.28,2.27 1.25,0 2.27,-1.02 2.27,-2.27 0,-1.26 -1.02,-2.28 -2.27,-2.28 -1.25,0 -2.28,1.02 -2.28,2.28" /><path
           id="path104"
           style="fill:#000000;fill-opacity:1;fill-rule:nonzero;stroke:none"
           d="m 518.22,293.45 c 0,1.26 1.02,2.28 2.27,2.28 1.25,0 2.28,-1.02 2.28,-2.28 0,-1.25 -1.03,-2.27 -2.28,-2.27 -1.25,0 -2.27,1.02 -2.27,2.27" /><path
           id="path106"
           style="fill:#000000;fill-opacity:1;fill-rule:nonzero;stroke:none"
           d="m 702.02,287.28 c 0,1.25 1.02,2.27 2.27,2.27 1.25,0 2.28,-1.02 2.28,-2.27 0,-1.25 -1.03,-2.28 -2.28,-2.28 -1.25,0 -2.27,1.03 -2.27,2.28" /><path
           id="path108"
           style="fill:#000000;fill-opacity:1;fill-rule:nonzero;stroke:none"
           d="m 580.07,216.24 c 0,1.25 1.03,2.27 2.28,2.27 1.25,0 2.27,-1.02 2.27,-2.27 0,-1.25 -1.02,-2.28 -2.27,-2.28 -1.25,0 -2.28,1.03 -2.28,2.28" /><path
           id="path110"
           style="fill:#000000;fill-opacity:1;fill-rule:nonzero;stroke:none"
           d="m 776.25,599.23 c 0,1.25 1.02,2.27 2.27,2.27 1.25,0 2.28,-1.02 2.28,-2.27 0,-1.26 -1.03,-2.28 -2.28,-2.28 -1.25,0 -2.27,1.02 -2.27,2.28" /><path
           id="path112"
           style="fill:#000000;fill-opacity:1;fill-rule:nonzero;stroke:none"
           d="m 797.45,571.43 c 0,1.25 1.03,2.27 2.28,2.27 1.25,0 2.27,-1.02 2.27,-2.27 0,-1.25 -1.02,-2.28 -2.27,-2.28 -1.25,0 -2.28,1.03 -2.28,2.28" /><path
           id="path114"
           style="fill:#000000;fill-opacity:1;fill-rule:nonzero;stroke:none"
           d="m 576.54,206.97 c 0,1.26 1.02,2.28 2.27,2.28 1.25,0 2.28,-1.02 2.28,-2.28 0,-1.25 -1.03,-2.27 -2.28,-2.27 -1.25,0 -2.27,1.02 -2.27,2.27" /><path
           id="path116"
           style="fill:#000000;fill-opacity:1;fill-rule:nonzero;stroke:none"
           d="m 790.38,623.93 c 0,1.26 1.03,2.28 2.28,2.28 1.25,0 2.27,-1.02 2.27,-2.28 0,-1.25 -1.02,-2.27 -2.27,-2.27 -1.25,0 -2.28,1.02 -2.28,2.27" /><path
           id="path118"
           style="fill:#000000;fill-opacity:1;fill-rule:nonzero;stroke:none"
           d="m 804.52,503.48 c 0,1.25 1.03,2.27 2.28,2.27 1.25,0 2.27,-1.02 2.27,-2.27 0,-1.25 -1.02,-2.28 -2.27,-2.28 -1.25,0 -2.28,1.03 -2.28,2.28" /><path
           id="path120"
           style="fill:#000000;fill-opacity:1;fill-rule:nonzero;stroke:none"
           d="m 523.52,234.77 c 0,1.25 1.02,2.28 2.27,2.28 1.26,0 2.28,-1.03 2.28,-2.28 0,-1.25 -1.02,-2.27 -2.28,-2.27 -1.25,0 -2.27,1.02 -2.27,2.27" /><path
           id="path122"
           style="fill:#000000;fill-opacity:1;fill-rule:nonzero;stroke:none"
           d="m 737.36,361.4 c 0,1.25 1.03,2.28 2.28,2.28 1.25,0 2.27,-1.03 2.27,-2.28 0,-1.25 -1.02,-2.27 -2.27,-2.27 -1.25,0 -2.28,1.02 -2.28,2.27" /><path
           id="path124"
           style="fill:#000000;fill-opacity:1;fill-rule:nonzero;stroke:none"
           d="m 756.81,194.62 c 0,1.25 1.02,2.27 2.27,2.27 1.25,0 2.28,-1.02 2.28,-2.27 0,-1.25 -1.03,-2.28 -2.28,-2.28 -1.25,0 -2.27,1.03 -2.27,2.28" /><path
           id="path126"
           style="fill:#000000;fill-opacity:1;fill-rule:nonzero;stroke:none"
           d="m 767.41,67.99 c 0,1.25 1.02,2.27 2.27,2.27 1.26,0 2.28,-1.02 2.28,-2.27 0,-1.25 -1.02,-2.28 -2.28,-2.28 -1.25,0 -2.27,1.03 -2.27,2.28" /><path
           id="path128"
           style="fill:#000000;fill-opacity:1;fill-rule:nonzero;stroke:none"
           d="m 565.93,389.2 c 0,1.25 1.03,2.28 2.28,2.28 1.25,0 2.27,-1.03 2.27,-2.28 0,-1.25 -1.02,-2.27 -2.27,-2.27 -1.25,0 -2.28,1.02 -2.28,2.27" /><path
           id="path130"
           style="fill:#000000;fill-opacity:1;fill-rule:nonzero;stroke:none"
           d="m 709.09,123.58 c 0,1.25 1.02,2.28 2.27,2.28 1.25,0 2.28,-1.03 2.28,-2.28 0,-1.25 -1.03,-2.27 -2.28,-2.27 -1.25,0 -2.27,1.02 -2.27,2.27" /><path
           id="path132"
           style="fill:#000000;fill-opacity:1;fill-rule:nonzero;stroke:none"
           d="m 382.13,373.76 c 0,1.25 1.03,2.27 2.28,2.27 1.25,0 2.27,-1.02 2.27,-2.27 0,-1.25 -1.02,-2.28 -2.27,-2.28 -1.25,0 -2.28,1.03 -2.28,2.28" /><path
           id="path134"
           style="fill:#000000;fill-opacity:1;fill-rule:nonzero;stroke:none"
           d="m 532.36,333.61 c 0,1.25 1.02,2.27 2.27,2.27 1.25,0 2.28,-1.02 2.28,-2.27 0,-1.25 -1.03,-2.28 -2.28,-2.28 -1.25,0 -2.27,1.03 -2.27,2.28" /><path
           id="path136"
           style="fill:#000000;fill-opacity:1;fill-rule:nonzero;stroke:none"
           d="m 486.41,281.1 c 0,1.25 1.02,2.28 2.27,2.28 1.25,0 2.28,-1.03 2.28,-2.28 0,-1.25 -1.03,-2.27 -2.28,-2.27 -1.25,0 -2.27,1.02 -2.27,2.27" /><path
           id="path138"
           style="fill:#000000;fill-opacity:1;fill-rule:nonzero;stroke:none"
           d="m 901.73,469.5 c 0,1.26 1.02,2.28 2.27,2.28 1.25,0 2.28,-1.02 2.28,-2.28 0,-1.25 -1.03,-2.27 -2.28,-2.27 -1.25,0 -2.27,1.02 -2.27,2.27" /><path
           id="path140"
           style="fill:#306a8e;fill-opacity:1;fill-rule:nonzero;stroke:none"
           d="m 709.6,259.93 3.06,-5.31 h -6.13 z" /><path
           id="path142"
           style="fill:#306a8e;fill-opacity:1;fill-rule:nonzero;stroke:none"
           d="m 670.71,247.57 3.07,-5.3 h -6.13 z" /><path
           id="path144"
           style="fill:#306a8e;fill-opacity:1;fill-rule:nonzero;stroke:none"
           d="m 660.11,188.89 3.06,-5.31 h -6.12 z" /><path
           id="path146"
           style="fill:#306a8e;fill-opacity:1;fill-rule:nonzero;stroke:none"
           d="m 695.46,259.93 3.06,-5.31 h -6.13 z" /><path
           id="path148"
           style="fill:#306a8e;fill-opacity:1;fill-rule:nonzero;stroke:none"
           d="m 667.18,275.37 3.06,-5.3 h -6.12 z" /><path
           id="path150"
           style="fill:#306a8e;fill-opacity:1;fill-rule:nonzero;stroke:none"
           d="m 619.46,269.19 3.07,-5.3 h -6.13 z" /><path
           id="path152"
           style="fill:#306a8e;fill-opacity:1;fill-rule:nonzero;stroke:none"
           d="m 631.83,343.32 3.07,-5.31 h -6.13 z" /><path
           id="path154"
           style="fill:#306a8e;fill-opacity:1;fill-rule:nonzero;stroke:none"
           d="m 633.6,324.79 3.06,-5.31 h -6.12 z" /><path
           id="path156"
           style="fill:#306a8e;fill-opacity:1;fill-rule:nonzero;stroke:none"
           d="m 569.98,334.06 3.06,-5.31 h -6.13 z" /><path
           id="path158"
           style="fill:none;stroke:#306a8e;stroke-width:1.07000005;stroke-linecap:round;stroke-linejoin:round;stroke-miterlimit:10;stroke-dasharray:none;stroke-opacity:0.29800002"
           d="m 609.61,283.42 15.69,24.74" /><text
           id="text162"
           style="font-variant:normal;font-weight:normal;font-size:13px;font-family:Helvetica;-inkscape-font-specification:Helvetica;writing-mode:lr-tb;fill:#000000;fill-opacity:1;fill-rule:nonzero;stroke:none"
           transform="matrix(1,0,0,-1,526.13,151.81)"><tspan
             id="tspan160"
             y="0"
             x="0 8.6709995 18.056999 28.171 37.556999 45.5 52.728001 59.228001 66.456001 73.683998 79.859001 87.086998 94.315002">ECOUT_souvent</tspan></text>
<text
           id="text166"
           style="font-variant:normal;font-weight:normal;font-size:13px;font-family:Helvetica;-inkscape-font-specification:Helvetica;writing-mode:lr-tb;fill:#000000;fill-opacity:1;fill-rule:nonzero;stroke:none"
           transform="matrix(1,0,0,-1,260.86,712.55)"><tspan
             id="tspan164"
             y="0"
             x="0 8.6709995 18.056999 28.171 37.556999 45.5 52.728001 55.613998 62.841999 73.670998 80.899002 83.785004">ECOUT_jamais</tspan></text>
<text
           id="text170"
           style="font-variant:normal;font-weight:normal;font-size:13px;font-family:Helvetica;-inkscape-font-specification:Helvetica;writing-mode:lr-tb;fill:#000000;fill-opacity:1;fill-rule:nonzero;stroke:none"
           transform="matrix(1,0,0,-1,566.04,407.58)"><tspan
             id="tspan168"
             y="0"
             x="0 9.3859997 18.771999 26 33.228001 40.456001">CD_non</tspan></text>
<text
           id="text174"
           style="font-variant:normal;font-weight:normal;font-size:13px;font-family:Helvetica;-inkscape-font-specification:Helvetica;writing-mode:lr-tb;fill:#000000;fill-opacity:1;fill-rule:nonzero;stroke:none"
           transform="matrix(1,0,0,-1,644.16,141.03)"><tspan
             id="tspan172"
             y="0"
             x="0 9.3859997 18.771999 26 33.228001 40.456001">CD_oui</tspan></text>
<text
           id="text178"
           style="font-variant:normal;font-weight:normal;font-size:13px;font-family:Helvetica;-inkscape-font-specification:Helvetica;writing-mode:lr-tb;fill:#000000;fill-opacity:1;fill-rule:nonzero;stroke:none"
           transform="matrix(1,0,0,-1,728.43,403.27)"><tspan
             id="tspan176"
             y="0"
             x="0 10.829 19.5 26.728001 33.956001 41.183998 48.411999">MP3_oui</tspan></text>
<text
           id="text182"
           style="font-variant:normal;font-weight:normal;font-size:13px;font-family:Helvetica;-inkscape-font-specification:Helvetica;writing-mode:lr-tb;fill:#000000;fill-opacity:1;fill-rule:nonzero;stroke:none"
           transform="matrix(1,0,0,-1,669.62,426)"><tspan
             id="tspan180"
             y="0"
             x="0 8.6709995 16.614 26 34.671001 43.341999 54.171001 61.398998 68.626999 75.855003">STREAM_oui</tspan></text>
<text
           id="text186"
           style="font-variant:normal;font-weight:normal;font-size:13px;font-family:Helvetica;-inkscape-font-specification:Helvetica;writing-mode:lr-tb;fill:#000000;fill-opacity:1;fill-rule:nonzero;stroke:none"
           transform="matrix(1,0,0,-1,461.79,453.3)"><tspan
             id="tspan184"
             y="0"
             x="0 9.3859997 18.056999 27.443001 31.056999 41.171001 48.398998 55.626999 62.855">RADIO_non</tspan></text>
<text
           id="text190"
           style="font-variant:normal;font-weight:normal;font-size:13px;font-family:Helvetica;-inkscape-font-specification:Helvetica;writing-mode:lr-tb;fill:#000000;fill-opacity:1;fill-rule:nonzero;stroke:none"
           transform="matrix(1,0,0,-1,447.71,482.59)"><tspan
             id="tspan188"
             y="0"
             x="0 7.631 16.302 25.688 33.631001 43.016998 50.244999 57.473 64.700996">VARFR_non</tspan></text>
<text
           id="text194"
           style="font-variant:normal;font-weight:normal;font-size:13px;font-family:Helvetica;-inkscape-font-specification:Helvetica;writing-mode:lr-tb;fill:#000000;fill-opacity:1;fill-rule:nonzero;stroke:none"
           transform="matrix(1,0,0,-1,754.57,275.12)"><tspan
             id="tspan192"
             y="0"
             x="0 10.829 20.215 28.886 39.715 49.828999 59.215 68.600998 77.272003 84.5 91.727997 98.956001">MUSMONDE_oui</tspan></text>
<text
           id="text198"
           style="font-variant:normal;font-weight:normal;font-size:13px;font-family:Helvetica;-inkscape-font-specification:Helvetica;writing-mode:lr-tb;fill:#000000;fill-opacity:1;fill-rule:nonzero;stroke:none"
           transform="matrix(1,0,0,-1,466.62,299.93)"><tspan
             id="tspan196"
             y="0"
             x="0 7.631 16.302 25.688 29.302 38.688 46.631001 53.859001 61.087002 68.315002">VARINT_non</tspan></text>
<text
           id="text202"
           style="font-variant:normal;font-weight:normal;font-size:13px;font-family:Helvetica;-inkscape-font-specification:Helvetica;writing-mode:lr-tb;fill:#000000;fill-opacity:1;fill-rule:nonzero;stroke:none"
           transform="matrix(1,0,0,-1,686.46,296.49)"><tspan
             id="tspan200"
             y="0"
             x="0 7.631 16.302 25.688 29.302 38.688 46.631001 53.859001 61.087002 68.315002">VARINT_oui</tspan></text>
<text
           id="text206"
           style="font-variant:normal;font-weight:normal;font-size:13px;font-family:Helvetica;-inkscape-font-specification:Helvetica;writing-mode:lr-tb;fill:#000000;fill-opacity:1;fill-rule:nonzero;stroke:none"
           transform="matrix(1,0,0,-1,554.57,224.23)"><tspan
             id="tspan204"
             y="0"
             x="0 9.3859997 18.771999 27.443001 34.671001 41.898998 49.126999">RNB_non</tspan></text>
<text
           id="text210"
           style="font-variant:normal;font-weight:normal;font-size:13px;font-family:Helvetica;-inkscape-font-specification:Helvetica;writing-mode:lr-tb;fill:#000000;fill-opacity:1;fill-rule:nonzero;stroke:none"
           transform="matrix(1,0,0,-1,764.58,605.34)"><tspan
             id="tspan208"
             y="0"
             x="0 9.3859997 18.771999 27.443001 34.671001 41.898998 49.126999">RNB_oui</tspan></text>
<text
           id="text214"
           style="font-variant:normal;font-weight:normal;font-size:13px;font-family:Helvetica;-inkscape-font-specification:Helvetica;writing-mode:lr-tb;fill:#000000;fill-opacity:1;fill-rule:nonzero;stroke:none"
           transform="matrix(1,0,0,-1,771.51,583.06)"><tspan
             id="tspan212"
             y="0"
             x="0 8.6709995 15.899 24.57 33.956001 41.898998 51.025002 61.139 68.366997 75.595001 82.822998">ELECTRO_oui</tspan></text>
<text
           id="text218"
           style="font-variant:normal;font-weight:normal;font-size:13px;font-family:Helvetica;-inkscape-font-specification:Helvetica;writing-mode:lr-tb;fill:#000000;fill-opacity:1;fill-rule:nonzero;stroke:none"
           transform="matrix(1,0,0,-1,537.95,190.64)"><tspan
             id="tspan216"
             y="0"
             x="0 9.3859997 18.056999 26.728001 33.956001 41.183998 48.411999">RAP_non</tspan></text>
<text
           id="text222"
           style="font-variant:normal;font-weight:normal;font-size:13px;font-family:Helvetica;-inkscape-font-specification:Helvetica;writing-mode:lr-tb;fill:#000000;fill-opacity:1;fill-rule:nonzero;stroke:none"
           transform="matrix(1,0,0,-1,779.5,634.01)"><tspan
             id="tspan220"
             y="0"
             x="0 9.3859997 18.056999 26.728001 33.956001 41.183998 48.411999">RAP_oui</tspan></text>
<text
           id="text226"
           style="font-variant:normal;font-weight:normal;font-size:13px;font-family:Helvetica;-inkscape-font-specification:Helvetica;writing-mode:lr-tb;fill:#000000;fill-opacity:1;fill-rule:nonzero;stroke:none"
           transform="matrix(1,0,0,-1,786.44,514.52)"><tspan
             id="tspan224"
             y="0"
             x="0 10.829 19.5 25.882999 34.554001 41.782001 49.009998 56.237999 63.466">METAL_oui</tspan></text>
<text
           id="text230"
           style="font-variant:normal;font-weight:normal;font-size:13px;font-family:Helvetica;-inkscape-font-specification:Helvetica;writing-mode:lr-tb;fill:#000000;fill-opacity:1;fill-rule:nonzero;stroke:none"
           transform="matrix(1,0,0,-1,453.33,219.13)"><tspan
             id="tspan228"
             y="0"
             x="0 8.6709995 18.785 27.455999 36.582001 46.695999 56.082001 64.752998 71.981003 79.209 86.436996">POPROCK_non</tspan></text>
<text
           id="text234"
           style="font-variant:normal;font-weight:normal;font-size:13px;font-family:Helvetica;-inkscape-font-specification:Helvetica;writing-mode:lr-tb;fill:#000000;fill-opacity:1;fill-rule:nonzero;stroke:none"
           transform="matrix(1,0,0,-1,706.6,342.26)"><tspan
             id="tspan232"
             y="0"
             x="0 8.6709995 18.785 27.455999 36.582001 46.695999 56.082001 64.752998 71.981003 79.209 86.436996">POPROCK_oui</tspan></text>
<text
           id="text238"
           style="font-variant:normal;font-weight:normal;font-size:13px;font-family:Helvetica;-inkscape-font-specification:Helvetica;writing-mode:lr-tb;fill:#000000;fill-opacity:1;fill-rule:nonzero;stroke:none"
           transform="matrix(1,0,0,-1,744.58,205.36)"><tspan
             id="tspan236"
             y="0"
             x="0 6.2399998 14.911 22.854 30.797001 38.025002 45.252998 52.480999">JAZZ_oui</tspan></text>
<text
           id="text242"
           style="font-variant:normal;font-weight:normal;font-size:13px;font-family:Helvetica;-inkscape-font-specification:Helvetica;writing-mode:lr-tb;fill:#000000;fill-opacity:1;fill-rule:nonzero;stroke:none"
           transform="matrix(1,0,0,-1,719.53,48.37)"><tspan
             id="tspan240"
             y="0"
             x="0 10.114 18.785 27.455999 36.841999 45.513 52.741001 59.969002 67.196999">OPERA_oui</tspan></text>
<text
           id="text246"
           style="font-variant:normal;font-weight:normal;font-size:13px;font-family:Helvetica;-inkscape-font-specification:Helvetica;writing-mode:lr-tb;fill:#000000;fill-opacity:1;fill-rule:nonzero;stroke:none"
           transform="matrix(1,0,0,-1,518.92,373.65)"><tspan
             id="tspan244"
             y="0"
             x="0 9.3859997 16.614 25.285 33.956001 42.626999 52.013 59.241001 66.469002 73.696999">CLASSC_non</tspan></text>
<text
           id="text250"
           style="font-variant:normal;font-weight:normal;font-size:13px;font-family:Helvetica;-inkscape-font-specification:Helvetica;writing-mode:lr-tb;fill:#000000;fill-opacity:1;fill-rule:nonzero;stroke:none"
           transform="matrix(1,0,0,-1,684.51,104.97)"><tspan
             id="tspan248"
             y="0"
             x="0 9.3859997 16.614 25.285 33.956001 42.626999 52.013 59.241001 66.469002 73.696999">CLASSC_oui</tspan></text>
<text
           id="text254"
           style="font-variant:normal;font-weight:normal;font-size:13px;font-family:Helvetica;-inkscape-font-specification:Helvetica;writing-mode:lr-tb;fill:#000000;fill-opacity:1;fill-rule:nonzero;stroke:none"
           transform="matrix(1,0,0,-1,350.8,384.66)"><tspan
             id="tspan252"
             y="0"
             x="0 8.0209999 17.407 25.35 34.736 41.964001 50.634998 60.021 70.135002 77.362999 84.591003 91.819">AUTRLANG_non</tspan></text>
<text
           id="text258"
           style="font-variant:normal;font-weight:normal;font-size:13px;font-family:Helvetica;-inkscape-font-specification:Helvetica;writing-mode:lr-tb;fill:#000000;fill-opacity:1;fill-rule:nonzero;stroke:none"
           transform="matrix(1,0,0,-1,466.16,343.28)"><tspan
             id="tspan256"
             y="0"
             x="0 7.1110001 15.054 22.997 31.667999 41.054001 48.997002 52.611 60.554001 67.781998 70.667999 77.896004 88.724998 95.953003 98.838997">ATTENTIF_jamais</tspan></text>
<text
           id="text262"
           style="font-variant:normal;font-weight:normal;font-size:13px;font-family:Helvetica;-inkscape-font-specification:Helvetica;writing-mode:lr-tb;fill:#000000;fill-opacity:1;fill-rule:nonzero;stroke:none"
           transform="matrix(1,0,0,-1,452.67,263.04)"><tspan
             id="tspan260"
             y="0"
             x="0 7.2280002 14.456 17.341999 23.517 30.745001 35.074001">univore</tspan></text>
<text
           id="text266"
           style="font-variant:normal;font-weight:normal;font-size:13px;font-family:Helvetica;-inkscape-font-specification:Helvetica;writing-mode:lr-tb;fill:#000000;fill-opacity:1;fill-rule:nonzero;stroke:none"
           transform="matrix(1,0,0,-1,861.72,452.65)"><tspan
             id="tspan264"
             y="0"
             x="0 7.2280002 13.728 16.614 23.841999 30.341999 33.956001 36.841999 44.07 51.298">eclectique</tspan></text>
<text
           id="text270"
           style="font-variant:normal;font-weight:normal;font-size:13px;font-family:Helvetica;-inkscape-font-specification:Helvetica;writing-mode:lr-tb;fill:#306a8e;fill-opacity:1;fill-rule:nonzero;stroke:none"
           transform="matrix(1,0,0,-1,619.04,222.84)"><tspan
             id="tspan268"
             y="0"
             x="0 10.829 18.056999 24.764999 28.379 31.993 42.821999 49.66 56.16 59.773998 63.388 70.980003 74.594002 81.094002 88.321999 95.095001">Mob. moy. − sup.</tspan></text>
<text
           id="text274"
           style="font-variant:normal;font-weight:normal;font-size:13px;font-family:Helvetica;-inkscape-font-specification:Helvetica;writing-mode:lr-tb;fill:#306a8e;fill-opacity:1;fill-rule:nonzero;stroke:none"
           transform="matrix(1,0,0,-1,631.52,168.61)"><tspan
             id="tspan272"
             y="0"
             x="0 10.829 18.056999 24.764999 28.379 31.993 39.221001 46.449001 53.222 56.835999 60.450001 68.042 71.655998 78.155998 85.384003 92.156998">Mob. pop. − sup.</tspan></text>
<text
           id="text278"
           style="font-variant:normal;font-weight:normal;font-size:13px;font-family:Helvetica;-inkscape-font-specification:Helvetica;writing-mode:lr-tb;fill:#306a8e;fill-opacity:1;fill-rule:nonzero;stroke:none"
           transform="matrix(1,0,0,-1,680.69,240.81)"><tspan
             id="tspan276"
             y="0"
             x="0 10.829 18.056999 24.764999 28.379 31.993 38.493 45.721001 52.493999 56.108002 59.722 67.314003 70.928001 81.757004 88.595001 95.095001">Mob. sup. − moy.</tspan></text>
<text
           id="text282"
           style="font-variant:normal;font-weight:normal;font-size:13px;font-family:Helvetica;-inkscape-font-specification:Helvetica;writing-mode:lr-tb;fill:#306a8e;fill-opacity:1;fill-rule:nonzero;stroke:none"
           transform="matrix(1,0,0,-1,615.4,279.48)"><tspan
             id="tspan280"
             y="0"
             x="0 9.3859997 16.614 23.841999 28.171 35.398998 42.626999 46.241001 49.855 60.683998 67.522003 74.022003">Reprod. moy.</tspan></text>
<text
           id="text286"
           style="font-variant:normal;font-weight:normal;font-size:13px;font-family:Helvetica;-inkscape-font-specification:Helvetica;writing-mode:lr-tb;fill:#306a8e;fill-opacity:1;fill-rule:nonzero;stroke:none"
           transform="matrix(1,0,0,-1,555.27,243.6)"><tspan
             id="tspan284"
             y="0"
             x="0 10.829 18.056999 24.764999 28.379 31.993 39.221001 46.449001 53.222 56.835999 60.450001 68.042 71.655998 82.485001 89.322998 95.822998">Mob. pop. − moy.</tspan></text>
<text
           id="text290"
           style="font-variant:normal;font-weight:normal;font-size:13px;font-family:Helvetica;-inkscape-font-specification:Helvetica;writing-mode:lr-tb;fill:#306a8e;fill-opacity:1;fill-rule:nonzero;stroke:none"
           transform="matrix(1,0,0,-1,598.44,346.62)"><tspan
             id="tspan288"
             y="0"
             x="0 10.829 18.056999 24.764999 28.379 31.993 38.493 45.721001 52.493999 56.108002 59.722 67.314003 70.928001 78.155998 85.384003 92.156998">Mob. sup. − pop.</tspan></text>
<text
           id="text294"
           style="font-variant:normal;font-weight:normal;font-size:13px;font-family:Helvetica;-inkscape-font-specification:Helvetica;writing-mode:lr-tb;fill:#306a8e;fill-opacity:1;fill-rule:nonzero;stroke:none"
           transform="matrix(1,0,0,-1,508.37,277.99)"><tspan
             id="tspan292"
             y="0"
             x="0 10.829 18.056999 24.764999 28.379 31.993 42.821999 49.66 56.16 59.773998 63.388 70.980003 74.594002 81.821999 89.050003 95.822998">Mob. moy. − pop.</tspan></text>
<text
           id="text298"
           style="font-variant:normal;font-weight:normal;font-size:13px;font-family:Helvetica;-inkscape-font-specification:Helvetica;writing-mode:lr-tb;fill:#306a8e;fill-opacity:1;fill-rule:nonzero;stroke:none"
           transform="matrix(1,0,0,-1,549.47,313.83)"><tspan
             id="tspan296"
             y="0"
             x="0 9.3859997 16.614 23.841999 28.171 35.398998 42.626999 46.241001 49.855 57.083 64.310997 71.084">Reprod. pop.</tspan></text>
<path
           id="path300"
           style="fill:none;stroke:#a9a9a9;stroke-width:1.07000005;stroke-linecap:butt;stroke-linejoin:round;stroke-miterlimit:10;stroke-dasharray:7.47, 3.2;stroke-dashoffset:0;stroke-opacity:1"
           d="M 222.96,290.37 H 936.43" /><path
           id="path302"
           style="fill:none;stroke:#a9a9a9;stroke-width:1.07000005;stroke-linecap:butt;stroke-linejoin:round;stroke-miterlimit:10;stroke-dasharray:7.47, 3.2;stroke-dashoffset:0;stroke-opacity:1"
           d="M 621.23,35.56 V 749.02" /><path
           id="path304"
           style="fill:none;stroke:#333333;stroke-width:1.07000005;stroke-linecap:round;stroke-linejoin:round;stroke-miterlimit:10;stroke-dasharray:none;stroke-opacity:1"
           d="M 222.96,35.56 H 936.43 V 749.03 H 222.96 Z" /></g></g><g
       id="g306" /><g
       id="g308" /><g
       id="g310" /><g
       id="g312" /><g
       id="g314" /><g
       id="g316" /><g
       id="g318" /><g
       id="g320" /><g
       id="g322" /><g
       id="g324" /><g
       id="g326" /><g
       id="g328" /><g
       id="g330" /><g
       id="g332" /><g
       id="g334" /><g
       id="g336"><text
         id="text340"
         style="font-variant:normal;font-weight:normal;font-size:9px;font-family:Helvetica;-inkscape-font-specification:Helvetica;writing-mode:lr-tb;fill:#4d4d4d;fill-opacity:1;fill-rule:nonzero;stroke:none"
         transform="matrix(1,0,0,-1,200.27,132.71)"><tspan
           id="tspan338"
           y="0"
           x="0 5.256 10.26 12.762">−0.5</tspan></text>
<text
         id="text344"
         style="font-variant:normal;font-weight:normal;font-size:9px;font-family:Helvetica;-inkscape-font-specification:Helvetica;writing-mode:lr-tb;fill:#4d4d4d;fill-opacity:1;fill-rule:nonzero;stroke:none"
         transform="matrix(1,0,0,-1,205.52,287.14)"><tspan
           id="tspan342"
           y="0"
           x="0 5.0040002 7.506">0.0</tspan></text>
<text
         id="text348"
         style="font-variant:normal;font-weight:normal;font-size:9px;font-family:Helvetica;-inkscape-font-specification:Helvetica;writing-mode:lr-tb;fill:#4d4d4d;fill-opacity:1;fill-rule:nonzero;stroke:none"
         transform="matrix(1,0,0,-1,205.52,441.56)"><tspan
           id="tspan346"
           y="0"
           x="0 5.0040002 7.506">0.5</tspan></text>
<text
         id="text352"
         style="font-variant:normal;font-weight:normal;font-size:9px;font-family:Helvetica;-inkscape-font-specification:Helvetica;writing-mode:lr-tb;fill:#4d4d4d;fill-opacity:1;fill-rule:nonzero;stroke:none"
         transform="matrix(1,0,0,-1,205.52,595.99)"><tspan
           id="tspan350"
           y="0"
           x="0 5.0040002 7.506">1.0</tspan></text>
</g><g
       id="g354" /><g
       id="g356" /><g
       id="g358"><path
         id="path360"
         style="fill:none;stroke:#333333;stroke-width:1.07000005;stroke-linecap:butt;stroke-linejoin:round;stroke-miterlimit:10;stroke-dasharray:none;stroke-opacity:1"
         d="m 220.22,135.94 h 2.74" /><path
         id="path362"
         style="fill:none;stroke:#333333;stroke-width:1.07000005;stroke-linecap:butt;stroke-linejoin:round;stroke-miterlimit:10;stroke-dasharray:none;stroke-opacity:1"
         d="m 220.22,290.37 h 2.74" /><path
         id="path364"
         style="fill:none;stroke:#333333;stroke-width:1.07000005;stroke-linecap:butt;stroke-linejoin:round;stroke-miterlimit:10;stroke-dasharray:none;stroke-opacity:1"
         d="m 220.22,444.8 h 2.74" /><path
         id="path366"
         style="fill:none;stroke:#333333;stroke-width:1.07000005;stroke-linecap:butt;stroke-linejoin:round;stroke-miterlimit:10;stroke-dasharray:none;stroke-opacity:1"
         d="m 220.22,599.23 h 2.74" /></g><g
       id="g368" /><g
       id="g370" /><g
       id="g372" /><g
       id="g374" /><g
       id="g376" /><g
       id="g378" /><g
       id="g380" /><g
       id="g382" /><g
       id="g384" /><g
       id="g386" /><g
       id="g388"><path
         id="path390"
         style="fill:none;stroke:#333333;stroke-width:1.07000005;stroke-linecap:butt;stroke-linejoin:round;stroke-miterlimit:10;stroke-dasharray:none;stroke-opacity:1"
         d="m 267.77,32.82 v 2.74" /><path
         id="path392"
         style="fill:none;stroke:#333333;stroke-width:1.07000005;stroke-linecap:butt;stroke-linejoin:round;stroke-miterlimit:10;stroke-dasharray:none;stroke-opacity:1"
         d="m 444.5,32.82 v 2.74" /><path
         id="path394"
         style="fill:none;stroke:#333333;stroke-width:1.07000005;stroke-linecap:butt;stroke-linejoin:round;stroke-miterlimit:10;stroke-dasharray:none;stroke-opacity:1"
         d="m 621.23,32.82 v 2.74" /><path
         id="path396"
         style="fill:none;stroke:#333333;stroke-width:1.07000005;stroke-linecap:butt;stroke-linejoin:round;stroke-miterlimit:10;stroke-dasharray:none;stroke-opacity:1"
         d="m 797.96,32.82 v 2.74" /></g><g
       id="g398" /><g
       id="g400"><text
         id="text404"
         style="font-variant:normal;font-weight:normal;font-size:9px;font-family:Helvetica;-inkscape-font-specification:Helvetica;writing-mode:lr-tb;fill:#4d4d4d;fill-opacity:1;fill-rule:nonzero;stroke:none"
         transform="matrix(1,0,0,-1,262.64,24.16)"><tspan
           id="tspan402"
           y="0"
           x="0 5.256">−2</tspan></text>
<text
         id="text408"
         style="font-variant:normal;font-weight:normal;font-size:9px;font-family:Helvetica;-inkscape-font-specification:Helvetica;writing-mode:lr-tb;fill:#4d4d4d;fill-opacity:1;fill-rule:nonzero;stroke:none"
         transform="matrix(1,0,0,-1,439.37,24.16)"><tspan
           id="tspan406"
           y="0"
           x="0 5.256">−1</tspan></text>
<text
         id="text412"
         style="font-variant:normal;font-weight:normal;font-size:9px;font-family:Helvetica;-inkscape-font-specification:Helvetica;writing-mode:lr-tb;fill:#4d4d4d;fill-opacity:1;fill-rule:nonzero;stroke:none"
         transform="matrix(1,0,0,-1,618.73,24.16)"><tspan
           id="tspan410"
           y="0"
           x="0">0</tspan></text>
<text
         id="text416"
         style="font-variant:normal;font-weight:normal;font-size:9px;font-family:Helvetica;-inkscape-font-specification:Helvetica;writing-mode:lr-tb;fill:#4d4d4d;fill-opacity:1;fill-rule:nonzero;stroke:none"
         transform="matrix(1,0,0,-1,795.46,24.16)"><tspan
           id="tspan414"
           y="0"
           x="0">1</tspan></text>
</g><g
       id="g418" /><g
       id="g420" /><g
       id="g422" /><g
       id="g424" /><g
       id="g426" /><g
       id="g428" /><g
       id="g430" /><g
       id="g432"><text
         id="text436"
         style="font-variant:normal;font-weight:normal;font-size:16px;font-family:Times;-inkscape-font-specification:Times-Roman;writing-mode:lr-tb;fill:#000000;fill-opacity:1;fill-rule:nonzero;stroke:none"
         transform="matrix(1,0,0,-1,530.5,8.98)"><tspan
           id="tspan434"
           y="0"
           x="0 11.552 19.312 26.416 30.416 38.416 42.416 47.743999 55.743999 63.743999 67.744003 75.744003 79.744003 93.071999">Axe 1 (17.6 %)</tspan></text>
</g><g
       id="g438" /><g
       id="g440" /><g
       id="g442"><text
         id="text446"
         style="font-variant:normal;font-weight:normal;font-size:16px;font-family:Times;-inkscape-font-specification:Times-Roman;writing-mode:lr-tb;fill:#000000;fill-opacity:1;fill-rule:nonzero;stroke:none"
         transform="matrix(0,1,1,0,194.03,347.09)"><tspan
           id="tspan444"
           y="0"
           x="0 11.552 19.312 26.416 30.416 38.416 42.416 47.743999 55.743999 59.743999 67.744003 71.744003 85.071999">Axe 2 (7.7 %)</tspan></text>
</g><g
       id="g448" /><g
       id="g450" /><g
       id="g452" /><g
       id="g454" /><g
       id="g456" /><g
       id="g458" /><g
       id="g460" /><g
       id="g462" /><g
       id="g464"><path
         id="path466"
         style="fill:#ffffff;fill-opacity:1;fill-rule:nonzero;stroke:none"
         d="m 947.39,358.5 h 173.43 v 67.57 H 947.39 Z" /></g><g
       id="g468" /><g
       id="g470" /><g
       id="g472" /><g
       id="g474"><text
         id="text478"
         style="font-variant:normal;font-weight:normal;font-size:16px;font-family:Times;-inkscape-font-specification:Times-Roman;writing-mode:lr-tb;fill:#000000;fill-opacity:1;fill-rule:nonzero;stroke:none"
         transform="matrix(1,0,0,-1,952.87,408.26)"><tspan
           id="tspan476"
           y="0"
           x="0 8.4960003 16.496 24.496 31.6 35.599998 43.599998 50.703999 56.928001 60.928001 68.528 75.632004 80.959999 85.407997 92.512001 100.512 104.96 112.064">Type des variables</tspan></text>
</g><g
       id="g480" /><g
       id="g482" /><g
       id="g484" /><g
       id="g486"><path
         id="path488"
         style="fill:#ffffff;fill-opacity:1;fill-rule:nonzero;stroke:none"
         d="m 952.87,381.26 h 17.28 v 17.28 h -17.28 z" /></g><g
       id="g490" /><g
       id="g492"><path
         id="path494"
         style="fill:#000000;fill-opacity:1;fill-rule:nonzero;stroke:none"
         d="m 957.95,389.9 c 0,1.96 1.6,3.56 3.56,3.56 1.95,0 3.55,-1.6 3.55,-3.56 0,-1.95 -1.6,-3.55 -3.55,-3.55 -1.96,0 -3.56,1.6 -3.56,3.55" /></g><g
       id="g496" /><g
       id="g498"><path
         id="path500"
         style="fill:#ffffff;fill-opacity:1;fill-rule:nonzero;stroke:none"
         d="m 952.87,363.98 h 17.28 v 17.28 h -17.28 z" /></g><g
       id="g502" /><g
       id="g504"><path
         id="path506"
         style="fill:#000000;fill-opacity:1;fill-rule:nonzero;stroke:none"
         d="m 961.51,378.15 4.79,-8.29 h -9.58 z" /></g><g
       id="g508" /><g
       id="g510" /><g
       id="g512" /><g
       id="g514"><text
         id="text518"
         style="font-variant:normal;font-weight:normal;font-size:14px;font-family:Times;-inkscape-font-specification:Times-Roman;writing-mode:lr-tb;fill:#000000;fill-opacity:1;fill-rule:nonzero;stroke:none"
         transform="matrix(1,0,0,-1,978.12,385.27)"><tspan
           id="tspan516"
           y="0"
           x="0 8.5539999 14.77 19.431999 23.323999 29.540001 36.540001 40.431999 46.647999 50.147999 56.363998 62.580002 66.472 70.363998 77.153999">Variable active</tspan></text>
</g><g
       id="g520" /><g
       id="g522" /><g
       id="g524" /><g
       id="g526" /><g
       id="g528" /><g
       id="g530"><text
         id="text534"
         style="font-variant:normal;font-weight:normal;font-size:14px;font-family:Times;-inkscape-font-specification:Times-Roman;writing-mode:lr-tb;fill:#000000;fill-opacity:1;fill-rule:nonzero;stroke:none"
         transform="matrix(1,0,0,-1,978.12,367.99)"><tspan
           id="tspan532"
           y="0"
           x="0 8.5539999 14.77 19.431999 23.323999 29.540001 36.540001 40.431999 46.647999 50.147999 55.594002 62.594002 69.594002 76.594002 80.486 86.702003 97.594002 103.81 110.81 114.702 120.918 124.81 129.472">Variable supplémentaire</tspan></text>
</g><g
       id="g536" /><g
       id="g538" /><g
       id="g540" /><g
       id="g542" /><g
       id="g544" /><g
       id="g546" /><g
       id="g548" /><g
       id="g550" /><g
       id="g552" /><g
       id="g554" /><g
       id="g556" /><g
       id="g558" /><g
       id="g560" /><g
       id="g562" /><g
       id="g564" /><g
       id="g566" /></g></svg>