<?xml version="1.0" encoding="UTF-8" standalone="no"?>
<svg
   xmlns:dc="http://purl.org/dc/elements/1.1/"
   xmlns:cc="http://creativecommons.org/ns#"
   xmlns:rdf="http://www.w3.org/1999/02/22-rdf-syntax-ns#"
   xmlns:svg="http://www.w3.org/2000/svg"
   xmlns="http://www.w3.org/2000/svg"
   viewBox="0 0 1414.6667 780"
   height="780"
   width="1414.6667"
   xml:space="preserve"
   id="svg2"
   version="1.1"><metadata
     id="metadata8"><rdf:RDF><cc:Work
         rdf:about=""><dc:format>image/svg+xml</dc:format><dc:type
           rdf:resource="http://purl.org/dc/dcmitype/StillImage" /></cc:Work></rdf:RDF></metadata><defs
     id="defs6"><clipPath
       id="clipPath36"
       clipPathUnits="userSpaceOnUse"><path
         id="path34"
         d="m 233.02,0 h 595.2 v 585.75 h -595.2 z" /></clipPath><clipPath
       id="clipPath48"
       clipPathUnits="userSpaceOnUse"><path
         id="path46"
         d="M 278.03,35.56 H 822.74 V 580.27 H 278.03 Z" /></clipPath></defs><g
     transform="matrix(1.3333333,0,0,-1.3333333,0,780)"
     id="g10"><g
       id="g12" /><g
       id="g14" /><g
       id="g16" /><g
       id="g18" /><g
       id="g20" /><g
       id="g22" /><g
       id="g24" /><g
       id="g26" /><g
       id="g28" /><g
       id="g30"><g
         clip-path="url(#clipPath36)"
         id="g32"><path
           id="path38"
           style="fill:#ffffff;fill-opacity:1;fill-rule:nonzero;stroke:#ffffff;stroke-width:1.07000005;stroke-linecap:round;stroke-linejoin:round;stroke-miterlimit:10;stroke-dasharray:none;stroke-opacity:1"
           d="m 233.02,0 h 595.2 v 585.75 h -595.2 z" /></g></g><g
       id="g40" /><g
       id="g42"><g
         clip-path="url(#clipPath48)"
         id="g44"><path
           id="path50"
           style="fill:#ffffff;fill-opacity:1;fill-rule:nonzero;stroke:none"
           d="M 278.03,35.56 H 822.74 V 580.27 H 278.03 Z" /><path
           id="path52"
           style="fill:none;stroke:#ebebeb;stroke-width:0.52999997;stroke-linecap:butt;stroke-linejoin:round;stroke-miterlimit:10;stroke-dasharray:none;stroke-opacity:1"
           d="M 278.03,128.62 H 822.75" /><path
           id="path54"
           style="fill:none;stroke:#ebebeb;stroke-width:0.52999997;stroke-linecap:butt;stroke-linejoin:round;stroke-miterlimit:10;stroke-dasharray:none;stroke-opacity:1"
           d="M 278.03,299.38 H 822.75" /><path
           id="path56"
           style="fill:none;stroke:#ebebeb;stroke-width:0.52999997;stroke-linecap:butt;stroke-linejoin:round;stroke-miterlimit:10;stroke-dasharray:none;stroke-opacity:1"
           d="M 278.03,470.13 H 822.75" /><path
           id="path58"
           style="fill:none;stroke:#ebebeb;stroke-width:0.52999997;stroke-linecap:butt;stroke-linejoin:round;stroke-miterlimit:10;stroke-dasharray:none;stroke-opacity:1"
           d="M 332.58,35.56 V 580.27" /><path
           id="path60"
           style="fill:none;stroke:#ebebeb;stroke-width:0.52999997;stroke-linecap:butt;stroke-linejoin:round;stroke-miterlimit:10;stroke-dasharray:none;stroke-opacity:1"
           d="M 518.74,35.56 V 580.27" /><path
           id="path62"
           style="fill:none;stroke:#ebebeb;stroke-width:0.52999997;stroke-linecap:butt;stroke-linejoin:round;stroke-miterlimit:10;stroke-dasharray:none;stroke-opacity:1"
           d="M 704.91,35.56 V 580.27" /><path
           id="path64"
           style="fill:none;stroke:#ebebeb;stroke-width:1.07000005;stroke-linecap:butt;stroke-linejoin:round;stroke-miterlimit:10;stroke-dasharray:none;stroke-opacity:1"
           d="M 278.03,43.24 H 822.75" /><path
           id="path66"
           style="fill:none;stroke:#ebebeb;stroke-width:1.07000005;stroke-linecap:butt;stroke-linejoin:round;stroke-miterlimit:10;stroke-dasharray:none;stroke-opacity:1"
           d="M 278.03,214 H 822.75" /><path
           id="path68"
           style="fill:none;stroke:#ebebeb;stroke-width:1.07000005;stroke-linecap:butt;stroke-linejoin:round;stroke-miterlimit:10;stroke-dasharray:none;stroke-opacity:1"
           d="M 278.03,384.75 H 822.75" /><path
           id="path70"
           style="fill:none;stroke:#ebebeb;stroke-width:1.07000005;stroke-linecap:butt;stroke-linejoin:round;stroke-miterlimit:10;stroke-dasharray:none;stroke-opacity:1"
           d="M 278.03,555.51 H 822.75" /><path
           id="path72"
           style="fill:none;stroke:#ebebeb;stroke-width:1.07000005;stroke-linecap:butt;stroke-linejoin:round;stroke-miterlimit:10;stroke-dasharray:none;stroke-opacity:1"
           d="M 425.66,35.56 V 580.27" /><path
           id="path74"
           style="fill:none;stroke:#ebebeb;stroke-width:1.07000005;stroke-linecap:butt;stroke-linejoin:round;stroke-miterlimit:10;stroke-dasharray:none;stroke-opacity:1"
           d="M 611.82,35.56 V 580.27" /><path
           id="path76"
           style="fill:none;stroke:#ebebeb;stroke-width:1.07000005;stroke-linecap:butt;stroke-linejoin:round;stroke-miterlimit:10;stroke-dasharray:none;stroke-opacity:1"
           d="M 797.99,35.56 V 580.27" /><path
           id="path78"
           style="fill:none;stroke:#306a8e;stroke-width:0.70999998;stroke-linecap:round;stroke-linejoin:round;stroke-miterlimit:10;stroke-dasharray:none;stroke-opacity:1"
           d="m 787.2,555.51 c 0,1.84 1.5,3.34 3.34,3.34 1.84,0 3.34,-1.5 3.34,-3.34 0,-1.84 -1.5,-3.34 -3.34,-3.34 -1.84,0 -3.34,1.5 -3.34,3.34" /><path
           id="path80"
           style="fill:none;stroke:#306a8e;stroke-width:0.70999998;stroke-linecap:round;stroke-linejoin:round;stroke-miterlimit:10;stroke-dasharray:none;stroke-opacity:1"
           d="m 779.75,377.92 c 0,1.84 1.51,3.35 3.34,3.35 1.84,0 3.35,-1.51 3.35,-3.35 0,-1.83 -1.51,-3.34 -3.35,-3.34 -1.83,0 -3.34,1.51 -3.34,3.34" /><path
           id="path82"
           style="fill:none;stroke:#306a8e;stroke-width:0.70999998;stroke-linecap:round;stroke-linejoin:round;stroke-miterlimit:10;stroke-dasharray:none;stroke-opacity:1"
           d="m 660.61,169.6 c 0,1.84 1.5,3.34 3.34,3.34 1.84,0 3.34,-1.5 3.34,-3.34 0,-1.84 -1.5,-3.34 -3.34,-3.34 -1.84,0 -3.34,1.5 -3.34,3.34" /><path
           id="path84"
           style="fill:none;stroke:#306a8e;stroke-width:0.70999998;stroke-linecap:round;stroke-linejoin:round;stroke-miterlimit:10;stroke-dasharray:none;stroke-opacity:1"
           d="m 493.06,60.32 c 0,1.83 1.5,3.34 3.34,3.34 1.84,0 3.34,-1.51 3.34,-3.34 0,-1.84 -1.5,-3.35 -3.34,-3.35 -1.84,0 -3.34,1.51 -3.34,3.35" /><path
           id="path86"
           style="fill:none;stroke:#306a8e;stroke-width:0.70999998;stroke-linecap:round;stroke-linejoin:round;stroke-miterlimit:10;stroke-dasharray:none;stroke-opacity:1"
           d="m 299.45,97.88 c 0,1.84 1.5,3.34 3.34,3.34 1.84,0 3.34,-1.5 3.34,-3.34 0,-1.84 -1.5,-3.34 -3.34,-3.34 -1.84,0 -3.34,1.5 -3.34,3.34" /><path
           id="path88"
           style="fill:none;stroke:#306a8e;stroke-width:0.70999998;stroke-linecap:round;stroke-linejoin:round;stroke-miterlimit:10;stroke-dasharray:none;stroke-opacity:1"
           d="m 618.27,258.39 4.72,4.73 4.73,-4.73 -4.73,-4.72 z" /><path
           id="path90"
           style="fill:none;stroke:#306a8e;stroke-width:0.70999998;stroke-linecap:round;stroke-linejoin:round;stroke-miterlimit:10;stroke-dasharray:none;stroke-opacity:1"
           d="m 595.93,173.02 4.72,4.72 4.73,-4.72 -4.73,-4.73 z" /><path
           id="path92"
           style="fill:none;stroke:#306a8e;stroke-width:0.70999998;stroke-linecap:round;stroke-linejoin:round;stroke-miterlimit:10;stroke-dasharray:none;stroke-opacity:1"
           d="m 455.83,261.88 6.68,6.69" /><path
           id="path94"
           style="fill:none;stroke:#306a8e;stroke-width:0.70999998;stroke-linecap:round;stroke-linejoin:round;stroke-miterlimit:10;stroke-dasharray:none;stroke-opacity:1"
           d="m 455.83,268.57 6.68,-6.69" /><path
           id="path96"
           style="fill:none;stroke:#306a8e;stroke-width:0.70999998;stroke-linecap:round;stroke-linejoin:round;stroke-miterlimit:10;stroke-dasharray:none;stroke-opacity:1"
           d="m 537.74,231.15 6.68,6.68" /><path
           id="path98"
           style="fill:none;stroke:#306a8e;stroke-width:0.70999998;stroke-linecap:round;stroke-linejoin:round;stroke-miterlimit:10;stroke-dasharray:none;stroke-opacity:1"
           d="m 537.74,237.83 6.68,-6.68" /><path
           id="path100"
           style="fill:none;stroke:#306a8e;stroke-width:0.70999998;stroke-linecap:round;stroke-linejoin:round;stroke-miterlimit:10;stroke-dasharray:none;stroke-opacity:1"
           d="m 593.59,207.24 6.68,6.68" /><path
           id="path102"
           style="fill:none;stroke:#306a8e;stroke-width:0.70999998;stroke-linecap:round;stroke-linejoin:round;stroke-miterlimit:10;stroke-dasharray:none;stroke-opacity:1"
           d="m 593.59,213.92 6.68,-6.68" /><path
           id="path104"
           style="fill:none;stroke:#306a8e;stroke-width:0.70999998;stroke-linecap:round;stroke-linejoin:round;stroke-miterlimit:10;stroke-dasharray:none;stroke-opacity:1"
           d="m 660.61,210.66 6.68,6.68" /><path
           id="path106"
           style="fill:none;stroke:#306a8e;stroke-width:0.70999998;stroke-linecap:round;stroke-linejoin:round;stroke-miterlimit:10;stroke-dasharray:none;stroke-opacity:1"
           d="m 660.61,217.34 6.68,-6.68" /><path
           id="path108"
           style="fill:none;stroke:#306a8e;stroke-width:0.70999998;stroke-linecap:round;stroke-linejoin:round;stroke-miterlimit:10;stroke-dasharray:none;stroke-opacity:1"
           d="m 731.35,173.09 6.68,6.68" /><path
           id="path110"
           style="fill:none;stroke:#306a8e;stroke-width:0.70999998;stroke-linecap:round;stroke-linejoin:round;stroke-miterlimit:10;stroke-dasharray:none;stroke-opacity:1"
           d="m 731.35,179.77 6.68,-6.68" /><path
           id="path112"
           style="fill:none;stroke:#306a8e;stroke-width:0.70999998;stroke-linecap:round;stroke-linejoin:round;stroke-miterlimit:10;stroke-dasharray:none;stroke-opacity:1"
           d="m 797.99,181.63 4.5,-7.8 h -9 z" /><path
           id="path114"
           style="fill:none;stroke:#306a8e;stroke-width:0.70999998;stroke-linecap:round;stroke-linejoin:round;stroke-miterlimit:10;stroke-dasharray:none;stroke-opacity:1"
           d="m 716.08,167.97 4.5,-7.8 h -9.01 z" /><path
           id="path116"
           style="fill:none;stroke:#306a8e;stroke-width:0.70999998;stroke-linecap:round;stroke-linejoin:round;stroke-miterlimit:10;stroke-dasharray:none;stroke-opacity:1"
           d="m 693.74,103.08 4.5,-7.8 h -9 z" /><path
           id="path118"
           style="fill:none;stroke:#306a8e;stroke-width:0.70999998;stroke-linecap:round;stroke-linejoin:round;stroke-miterlimit:10;stroke-dasharray:none;stroke-opacity:1"
           d="m 768.2,181.63 4.5,-7.8 h -9 z" /><path
           id="path120"
           style="fill:none;stroke:#306a8e;stroke-width:0.70999998;stroke-linecap:round;stroke-linejoin:round;stroke-miterlimit:10;stroke-dasharray:none;stroke-opacity:1"
           d="m 708.63,198.7 4.5,-7.79 h -9 z" /><path
           id="path122"
           style="fill:none;stroke:#306a8e;stroke-width:0.70999998;stroke-linecap:round;stroke-linejoin:round;stroke-miterlimit:10;stroke-dasharray:none;stroke-opacity:1"
           d="m 608.1,191.87 4.5,-7.79 h -9 z" /><path
           id="path124"
           style="fill:none;stroke:#306a8e;stroke-width:0.70999998;stroke-linecap:round;stroke-linejoin:round;stroke-miterlimit:10;stroke-dasharray:none;stroke-opacity:1"
           d="m 634.16,273.84 4.5,-7.8 h -9 z" /><path
           id="path126"
           style="fill:none;stroke:#306a8e;stroke-width:0.70999998;stroke-linecap:round;stroke-linejoin:round;stroke-miterlimit:10;stroke-dasharray:none;stroke-opacity:1"
           d="m 637.89,253.35 4.5,-7.8 h -9 z" /><path
           id="path128"
           style="fill:none;stroke:#306a8e;stroke-width:0.70999998;stroke-linecap:round;stroke-linejoin:round;stroke-miterlimit:10;stroke-dasharray:none;stroke-opacity:1"
           d="m 503.85,263.59 4.5,-7.79 h -9 z" /><path
           id="path130"
           style="fill:none;stroke:#306a8e;stroke-width:0.70999998;stroke-linecap:round;stroke-linejoin:round;stroke-miterlimit:10;stroke-dasharray:none;stroke-opacity:1"
           d="m 324.13,227.66 h 9.45" /><path
           id="path132"
           style="fill:none;stroke:#306a8e;stroke-width:0.70999998;stroke-linecap:round;stroke-linejoin:round;stroke-miterlimit:10;stroke-dasharray:none;stroke-opacity:1"
           d="m 328.86,222.93 v 9.45" /><path
           id="path134"
           style="fill:none;stroke:#306a8e;stroke-width:0.70999998;stroke-linecap:round;stroke-linejoin:round;stroke-miterlimit:10;stroke-dasharray:none;stroke-opacity:1"
           d="m 540.08,196.92 h 9.45" /><path
           id="path136"
           style="fill:none;stroke:#306a8e;stroke-width:0.70999998;stroke-linecap:round;stroke-linejoin:round;stroke-miterlimit:10;stroke-dasharray:none;stroke-opacity:1"
           d="m 544.81,192.2 v 9.45" /><path
           id="path138"
           style="fill:none;stroke:#306a8e;stroke-width:0.70999998;stroke-linecap:round;stroke-linejoin:round;stroke-miterlimit:10;stroke-dasharray:none;stroke-opacity:1"
           d="m 689.01,248.15 h 9.45" /><path
           id="path140"
           style="fill:none;stroke:#306a8e;stroke-width:0.70999998;stroke-linecap:round;stroke-linejoin:round;stroke-miterlimit:10;stroke-dasharray:none;stroke-opacity:1"
           d="m 693.74,243.42 v 9.45" /><path
           id="path142"
           style="fill:none;stroke:#306a8e;stroke-width:0.70999998;stroke-linecap:round;stroke-linejoin:round;stroke-miterlimit:10;stroke-dasharray:none;stroke-opacity:1"
           d="m 722.52,241.32 h 9.45" /><path
           id="path144"
           style="fill:none;stroke:#306a8e;stroke-width:0.70999998;stroke-linecap:round;stroke-linejoin:round;stroke-miterlimit:10;stroke-dasharray:none;stroke-opacity:1"
           d="m 727.25,236.59 v 9.45" /><path
           id="path146"
           style="fill:none;stroke:#306a8e;stroke-width:0.70999998;stroke-linecap:round;stroke-linejoin:round;stroke-miterlimit:10;stroke-dasharray:none;stroke-opacity:1"
           d="m 767.2,183.26 h 9.45" /><path
           id="path148"
           style="fill:none;stroke:#306a8e;stroke-width:0.70999998;stroke-linecap:round;stroke-linejoin:round;stroke-miterlimit:10;stroke-dasharray:none;stroke-opacity:1"
           d="m 771.92,178.54 v 9.45" /><text
           id="text152"
           style="font-variant:normal;font-weight:normal;font-size:13px;font-family:Helvetica;-inkscape-font-specification:Helvetica;writing-mode:lr-tb;fill:#000000;fill-opacity:1;fill-rule:nonzero;stroke:none"
           transform="matrix(1,0,0,-1,750.52,532.87)"><tspan
             id="tspan150"
             y="0"
             x="0 7.592 15.184 22.412001 29.639999 36.868">−−_29a</tspan></text>
<text
           id="text156"
           style="font-variant:normal;font-weight:normal;font-size:13px;font-family:Helvetica;-inkscape-font-specification:Helvetica;writing-mode:lr-tb;fill:#000000;fill-opacity:1;fill-rule:nonzero;stroke:none"
           transform="matrix(1,0,0,-1,743.23,354.95)"><tspan
             id="tspan154"
             y="0"
             x="0 7.2280002 14.456 22.048 29.275999 36.504002">30−44a</tspan></text>
<text
           id="text160"
           style="font-variant:normal;font-weight:normal;font-size:13px;font-family:Helvetica;-inkscape-font-specification:Helvetica;writing-mode:lr-tb;fill:#000000;fill-opacity:1;fill-rule:nonzero;stroke:none"
           transform="matrix(1,0,0,-1,612.1,181.52)"><tspan
             id="tspan158"
             y="0"
             x="0 7.2280002 14.456 22.048 29.275999 36.504002">45−59a</tspan></text>
<text
           id="text164"
           style="font-variant:normal;font-weight:normal;font-size:13px;font-family:Helvetica;-inkscape-font-specification:Helvetica;writing-mode:lr-tb;fill:#000000;fill-opacity:1;fill-rule:nonzero;stroke:none"
           transform="matrix(1,0,0,-1,492.73,73.96)"><tspan
             id="tspan162"
             y="0"
             x="0 7.2280002 14.456 22.048 29.275999 36.504002">60−74a</tspan></text>
<text
           id="text168"
           style="font-variant:normal;font-weight:normal;font-size:13px;font-family:Helvetica;-inkscape-font-specification:Helvetica;writing-mode:lr-tb;fill:#000000;fill-opacity:1;fill-rule:nonzero;stroke:none"
           transform="matrix(1,0,0,-1,298.72,75.48)"><tspan
             id="tspan166"
             y="0"
             x="0 7.2280002 14.456 21.684 28.912001 36.504002">75a_++</tspan></text>
<text
           id="text172"
           style="font-variant:normal;font-weight:normal;font-size:13px;font-family:Helvetica;-inkscape-font-specification:Helvetica;writing-mode:lr-tb;fill:#000000;fill-opacity:1;fill-rule:nonzero;stroke:none"
           transform="matrix(1,0,0,-1,559.43,265.3)"><tspan
             id="tspan170"
             y="0"
             x="0 9.3859997 19.5 30.329 41.158001">HOMME</tspan></text>
<text
           id="text176"
           style="font-variant:normal;font-weight:normal;font-size:13px;font-family:Helvetica;-inkscape-font-specification:Helvetica;writing-mode:lr-tb;fill:#000000;fill-opacity:1;fill-rule:nonzero;stroke:none"
           transform="matrix(1,0,0,-1,551.59,150.34)"><tspan
             id="tspan174"
             y="0"
             x="0 7.9429998 16.614 27.443001 38.271999">FEMME</tspan></text>
<text
           id="text180"
           style="font-variant:normal;font-weight:normal;font-size:13px;font-family:Helvetica;-inkscape-font-specification:Helvetica;writing-mode:lr-tb;fill:#000000;fill-opacity:1;fill-rule:nonzero;stroke:none"
           transform="matrix(1,0,0,-1,409.97,278.5)"><tspan
             id="tspan178"
             y="0"
             x="0 7.592 14.82 22.048 29.275999 36.504002 43.731998 50.959999 55.289001">−1200euro</tspan></text>
<text
           id="text184"
           style="font-variant:normal;font-weight:normal;font-size:13px;font-family:Helvetica;-inkscape-font-specification:Helvetica;writing-mode:lr-tb;fill:#000000;fill-opacity:1;fill-rule:nonzero;stroke:none"
           transform="matrix(1,0,0,-1,442.89,212.68)"><tspan
             id="tspan182"
             y="0"
             x="0 7.2280002 14.456 21.684 28.912001 36.504002 43.731998 50.959999 58.188 65.416 72.643997 79.872002 84.200996">1200−1999euro</tspan></text>
<text
           id="text188"
           style="font-variant:normal;font-weight:normal;font-size:13px;font-family:Helvetica;-inkscape-font-specification:Helvetica;writing-mode:lr-tb;fill:#000000;fill-opacity:1;fill-rule:nonzero;stroke:none"
           transform="matrix(1,0,0,-1,518.64,247.97)"><tspan
             id="tspan186"
             y="0"
             x="0 7.2280002 14.456 21.684 28.912001 36.504002 43.731998 50.959999 58.188 65.416 72.643997 79.872002 84.200996">2000−2999euro</tspan></text>
<text
           id="text192"
           style="font-variant:normal;font-weight:normal;font-size:13px;font-family:Helvetica;-inkscape-font-specification:Helvetica;writing-mode:lr-tb;fill:#000000;fill-opacity:1;fill-rule:nonzero;stroke:none"
           transform="matrix(1,0,0,-1,638.69,189.82)"><tspan
             id="tspan190"
             y="0"
             x="0 7.2280002 14.456 21.684 28.912001 36.504002 43.731998 50.959999 58.188 65.416 72.643997 79.872002 84.200996">3000−3999euro</tspan></text>
<text
           id="text196"
           style="font-variant:normal;font-weight:normal;font-size:13px;font-family:Helvetica;-inkscape-font-specification:Helvetica;writing-mode:lr-tb;fill:#000000;fill-opacity:1;fill-rule:nonzero;stroke:none"
           transform="matrix(1,0,0,-1,748.13,223.69)"><tspan
             id="tspan194"
             y="0"
             x="0 7.2280002 14.456 21.684 28.912001 36.139999 43.368 47.696999 54.924999 62.516998">4000euro++</tspan></text>
<text
           id="text200"
           style="font-variant:normal;font-weight:normal;font-size:13px;font-family:Helvetica;-inkscape-font-specification:Helvetica;writing-mode:lr-tb;fill:#000000;fill-opacity:1;fill-rule:nonzero;stroke:none"
           transform="matrix(1,0,0,-1,745.18,153.48)"><tspan
             id="tspan198"
             y="0"
             x="0 9.3859997 16.614 23.841999 28.171 35.398998 42.626999 46.241001 49.855 56.355 63.583 70.356003">Reprod. sup.</tspan></text>
<text
           id="text204"
           style="font-variant:normal;font-weight:normal;font-size:13px;font-family:Helvetica;-inkscape-font-specification:Helvetica;writing-mode:lr-tb;fill:#000000;fill-opacity:1;fill-rule:nonzero;stroke:none"
           transform="matrix(1,0,0,-1,606.31,144.16)"><tspan
             id="tspan202"
             y="0"
             x="0 10.829 18.056999 24.764999 28.379 31.993 42.821999 49.66 56.16 59.773998 63.388 70.980003 74.594002 81.094002 88.321999 95.095001">Mob. moy. − sup.</tspan></text>
<text
           id="text208"
           style="font-variant:normal;font-weight:normal;font-size:13px;font-family:Helvetica;-inkscape-font-specification:Helvetica;writing-mode:lr-tb;fill:#000000;fill-opacity:1;fill-rule:nonzero;stroke:none"
           transform="matrix(1,0,0,-1,627.65,74.99)"><tspan
             id="tspan206"
             y="0"
             x="0 10.829 18.056999 24.764999 28.379 31.993 39.221001 46.449001 53.222 56.835999 60.450001 68.042 71.655998 78.155998 85.384003 92.156998">Mob. pop. − sup.</tspan></text>
<text
           id="text212"
           style="font-variant:normal;font-weight:normal;font-size:13px;font-family:Helvetica;-inkscape-font-specification:Helvetica;writing-mode:lr-tb;fill:#000000;fill-opacity:1;fill-rule:nonzero;stroke:none"
           transform="matrix(1,0,0,-1,713.53,136.94)"><tspan
             id="tspan210"
             y="0"
             x="0 10.829 18.056999 24.764999 28.379 31.993 38.493 45.721001 52.493999 56.108002 59.722 67.314003 70.928001 81.757004 88.595001 95.095001">Mob. sup. − moy.</tspan></text>
<text
           id="text216"
           style="font-variant:normal;font-weight:normal;font-size:13px;font-family:Helvetica;-inkscape-font-specification:Helvetica;writing-mode:lr-tb;fill:#000000;fill-opacity:1;fill-rule:nonzero;stroke:none"
           transform="matrix(1,0,0,-1,672.61,207.17)"><tspan
             id="tspan214"
             y="0"
             x="0 9.3859997 16.614 23.841999 28.171 35.398998 42.626999 46.241001 49.855 60.683998 67.522003 74.022003">Reprod. moy.</tspan></text>
<text
           id="text220"
           style="font-variant:normal;font-weight:normal;font-size:13px;font-family:Helvetica;-inkscape-font-specification:Helvetica;writing-mode:lr-tb;fill:#000000;fill-opacity:1;fill-rule:nonzero;stroke:none"
           transform="matrix(1,0,0,-1,541.54,224.93)"><tspan
             id="tspan218"
             y="0"
             x="0 10.829 18.056999 24.764999 28.379 31.993 39.221001 46.449001 53.222 56.835999 60.450001 68.042 71.655998 82.485001 89.322998 95.822998">Mob. pop. − moy.</tspan></text>
<text
           id="text224"
           style="font-variant:normal;font-weight:normal;font-size:13px;font-family:Helvetica;-inkscape-font-specification:Helvetica;writing-mode:lr-tb;fill:#000000;fill-opacity:1;fill-rule:nonzero;stroke:none"
           transform="matrix(1,0,0,-1,616.3,281.76)"><tspan
             id="tspan222"
             y="0"
             x="0 10.829 18.056999 24.764999 28.379 31.993 38.493 45.721001 52.493999 56.108002 59.722 67.314003 70.928001 78.155998 85.384003 92.156998">Mob. sup. − pop.</tspan></text>
<text
           id="text228"
           style="font-variant:normal;font-weight:normal;font-size:13px;font-family:Helvetica;-inkscape-font-specification:Helvetica;writing-mode:lr-tb;fill:#000000;fill-opacity:1;fill-rule:nonzero;stroke:none"
           transform="matrix(1,0,0,-1,631.27,226.36)"><tspan
             id="tspan226"
             y="0"
             x="0 10.829 18.056999 24.764999 28.379 31.993 42.821999 49.66 56.16 59.773998 63.388 70.980003 74.594002 81.821999 89.050003 95.822998">Mob. moy. − pop.</tspan></text>
<text
           id="text232"
           style="font-variant:normal;font-weight:normal;font-size:13px;font-family:Helvetica;-inkscape-font-specification:Helvetica;writing-mode:lr-tb;fill:#000000;fill-opacity:1;fill-rule:nonzero;stroke:none"
           transform="matrix(1,0,0,-1,436.48,235.76)"><tspan
             id="tspan230"
             y="0"
             x="0 9.3859997 16.614 23.841999 28.171 35.398998 42.626999 46.241001 49.855 57.083 64.310997 71.084">Reprod. pop.</tspan></text>
<text
           id="text236"
           style="font-variant:normal;font-weight:normal;font-size:13px;font-family:Helvetica;-inkscape-font-specification:Helvetica;writing-mode:lr-tb;fill:#000000;fill-opacity:1;fill-rule:nonzero;stroke:none"
           transform="matrix(1,0,0,-1,281.74,204.76)"><tspan
             id="tspan234"
             y="0"
             x="0 8.6709995 15.899 23.127001 29.627001 36.855 39.741001 46.969002 54.196999 63.583 72.253998">Sansdip_CEP</tspan></text>
<text
           id="text240"
           style="font-variant:normal;font-weight:normal;font-size:13px;font-family:Helvetica;-inkscape-font-specification:Helvetica;writing-mode:lr-tb;fill:#000000;fill-opacity:1;fill-rule:nonzero;stroke:none"
           transform="matrix(1,0,0,-1,475.76,173.87)"><tspan
             id="tspan238"
             y="0"
             x="0 8.6709995 17.341999 26.013 35.398998 42.626999 52.013 60.683998 69.355003 76.583 85.253998 93.925003">BEPC_CAP_BEP</tspan></text>
<text
           id="text244"
           style="font-variant:normal;font-weight:normal;font-size:13px;font-family:Helvetica;-inkscape-font-specification:Helvetica;writing-mode:lr-tb;fill:#000000;fill-opacity:1;fill-rule:nonzero;stroke:none"
           transform="matrix(1,0,0,-1,665.31,260.99)"><tspan
             id="tspan242"
             y="0"
             x="0 8.6709995 15.899">Bac</tspan></text>
<text
           id="text248"
           style="font-variant:normal;font-weight:normal;font-size:13px;font-family:Helvetica;-inkscape-font-specification:Helvetica;writing-mode:lr-tb;fill:#000000;fill-opacity:1;fill-rule:nonzero;stroke:none"
           transform="matrix(1,0,0,-1,726.09,254.31)"><tspan
             id="tspan246"
             y="0"
             x="0 8.6709995 15.899 22.399 29.990999">Bac+2</tspan></text>
<text
           id="text252"
           style="font-variant:normal;font-weight:normal;font-size:13px;font-family:Helvetica;-inkscape-font-specification:Helvetica;writing-mode:lr-tb;fill:#000000;fill-opacity:1;fill-rule:nonzero;stroke:none"
           transform="matrix(1,0,0,-1,759.4,196.44)"><tspan
             id="tspan250"
             y="0"
             x="0 8.6709995 15.899 22.399 29.990999 37.219002 44.446999 52.039001">Bac+3_++</tspan></text>
<path
           id="path254"
           style="fill:none;stroke:#a9a9a9;stroke-width:1.07000005;stroke-linecap:butt;stroke-linejoin:round;stroke-miterlimit:10;stroke-dasharray:7.47, 3.2;stroke-dashoffset:0;stroke-opacity:1"
           d="M 278.03,214 H 822.75" /><path
           id="path256"
           style="fill:none;stroke:#a9a9a9;stroke-width:1.07000005;stroke-linecap:butt;stroke-linejoin:round;stroke-miterlimit:10;stroke-dasharray:7.47, 3.2;stroke-dashoffset:0;stroke-opacity:1"
           d="M 611.82,35.56 V 580.27" /><path
           id="path258"
           style="fill:none;stroke:#333333;stroke-width:1.07000005;stroke-linecap:round;stroke-linejoin:round;stroke-miterlimit:10;stroke-dasharray:none;stroke-opacity:1"
           d="M 278.03,35.56 H 822.74 V 580.27 H 278.03 Z" /></g></g><g
       id="g260" /><g
       id="g262" /><g
       id="g264" /><g
       id="g266" /><g
       id="g268" /><g
       id="g270" /><g
       id="g272" /><g
       id="g274" /><g
       id="g276" /><g
       id="g278" /><g
       id="g280" /><g
       id="g282" /><g
       id="g284" /><g
       id="g286" /><g
       id="g288" /><g
       id="g290"><text
         id="text294"
         style="font-variant:normal;font-weight:normal;font-size:9px;font-family:Helvetica;-inkscape-font-specification:Helvetica;writing-mode:lr-tb;fill:#4d4d4d;fill-opacity:1;fill-rule:nonzero;stroke:none"
         transform="matrix(1,0,0,-1,255.34,40.01)"><tspan
           id="tspan292"
           y="0"
           x="0 5.256 10.26 12.762">−0.5</tspan></text>
<text
         id="text298"
         style="font-variant:normal;font-weight:normal;font-size:9px;font-family:Helvetica;-inkscape-font-specification:Helvetica;writing-mode:lr-tb;fill:#4d4d4d;fill-opacity:1;fill-rule:nonzero;stroke:none"
         transform="matrix(1,0,0,-1,260.59,210.77)"><tspan
           id="tspan296"
           y="0"
           x="0 5.0040002 7.506">0.0</tspan></text>
<text
         id="text302"
         style="font-variant:normal;font-weight:normal;font-size:9px;font-family:Helvetica;-inkscape-font-specification:Helvetica;writing-mode:lr-tb;fill:#4d4d4d;fill-opacity:1;fill-rule:nonzero;stroke:none"
         transform="matrix(1,0,0,-1,260.59,381.52)"><tspan
           id="tspan300"
           y="0"
           x="0 5.0040002 7.506">0.5</tspan></text>
<text
         id="text306"
         style="font-variant:normal;font-weight:normal;font-size:9px;font-family:Helvetica;-inkscape-font-specification:Helvetica;writing-mode:lr-tb;fill:#4d4d4d;fill-opacity:1;fill-rule:nonzero;stroke:none"
         transform="matrix(1,0,0,-1,260.59,552.28)"><tspan
           id="tspan304"
           y="0"
           x="0 5.0040002 7.506">1.0</tspan></text>
</g><g
       id="g308" /><g
       id="g310" /><g
       id="g312"><path
         id="path314"
         style="fill:none;stroke:#333333;stroke-width:1.07000005;stroke-linecap:butt;stroke-linejoin:round;stroke-miterlimit:10;stroke-dasharray:none;stroke-opacity:1"
         d="m 275.29,43.24 h 2.74" /><path
         id="path316"
         style="fill:none;stroke:#333333;stroke-width:1.07000005;stroke-linecap:butt;stroke-linejoin:round;stroke-miterlimit:10;stroke-dasharray:none;stroke-opacity:1"
         d="m 275.29,214 h 2.74" /><path
         id="path318"
         style="fill:none;stroke:#333333;stroke-width:1.07000005;stroke-linecap:butt;stroke-linejoin:round;stroke-miterlimit:10;stroke-dasharray:none;stroke-opacity:1"
         d="m 275.29,384.75 h 2.74" /><path
         id="path320"
         style="fill:none;stroke:#333333;stroke-width:1.07000005;stroke-linecap:butt;stroke-linejoin:round;stroke-miterlimit:10;stroke-dasharray:none;stroke-opacity:1"
         d="m 275.29,555.51 h 2.74" /></g><g
       id="g322" /><g
       id="g324" /><g
       id="g326" /><g
       id="g328" /><g
       id="g330" /><g
       id="g332" /><g
       id="g334" /><g
       id="g336" /><g
       id="g338" /><g
       id="g340" /><g
       id="g342"><path
         id="path344"
         style="fill:none;stroke:#333333;stroke-width:1.07000005;stroke-linecap:butt;stroke-linejoin:round;stroke-miterlimit:10;stroke-dasharray:none;stroke-opacity:1"
         d="m 425.66,32.82 v 2.74" /><path
         id="path346"
         style="fill:none;stroke:#333333;stroke-width:1.07000005;stroke-linecap:butt;stroke-linejoin:round;stroke-miterlimit:10;stroke-dasharray:none;stroke-opacity:1"
         d="m 611.82,32.82 v 2.74" /><path
         id="path348"
         style="fill:none;stroke:#333333;stroke-width:1.07000005;stroke-linecap:butt;stroke-linejoin:round;stroke-miterlimit:10;stroke-dasharray:none;stroke-opacity:1"
         d="m 797.99,32.82 v 2.74" /></g><g
       id="g350" /><g
       id="g352"><text
         id="text356"
         style="font-variant:normal;font-weight:normal;font-size:9px;font-family:Helvetica;-inkscape-font-specification:Helvetica;writing-mode:lr-tb;fill:#4d4d4d;fill-opacity:1;fill-rule:nonzero;stroke:none"
         transform="matrix(1,0,0,-1,416.78,24.16)"><tspan
           id="tspan354"
           y="0"
           x="0 5.256 10.26 12.762">−0.5</tspan></text>
<text
         id="text360"
         style="font-variant:normal;font-weight:normal;font-size:9px;font-family:Helvetica;-inkscape-font-specification:Helvetica;writing-mode:lr-tb;fill:#4d4d4d;fill-opacity:1;fill-rule:nonzero;stroke:none"
         transform="matrix(1,0,0,-1,605.57,24.16)"><tspan
           id="tspan358"
           y="0"
           x="0 5.0040002 7.506">0.0</tspan></text>
<text
         id="text364"
         style="font-variant:normal;font-weight:normal;font-size:9px;font-family:Helvetica;-inkscape-font-specification:Helvetica;writing-mode:lr-tb;fill:#4d4d4d;fill-opacity:1;fill-rule:nonzero;stroke:none"
         transform="matrix(1,0,0,-1,791.73,24.16)"><tspan
           id="tspan362"
           y="0"
           x="0 5.0040002 7.506">0.5</tspan></text>
</g><g
       id="g366" /><g
       id="g368" /><g
       id="g370" /><g
       id="g372" /><g
       id="g374" /><g
       id="g376" /><g
       id="g378" /><g
       id="g380"><text
         id="text384"
         style="font-variant:normal;font-weight:normal;font-size:16px;font-family:Times;-inkscape-font-specification:Times-Roman;writing-mode:lr-tb;fill:#000000;fill-opacity:1;fill-rule:nonzero;stroke:none"
         transform="matrix(1,0,0,-1,501.19,8.98)"><tspan
           id="tspan382"
           y="0"
           x="0 11.552 19.312 26.416 30.416 38.416 42.416 47.743999 55.743999 63.743999 67.744003 75.744003 79.744003 93.071999">Axe 1 (17.6 %)</tspan></text>
</g><g
       id="g386" /><g
       id="g388" /><g
       id="g390"><text
         id="text394"
         style="font-variant:normal;font-weight:normal;font-size:16px;font-family:Times;-inkscape-font-specification:Times-Roman;writing-mode:lr-tb;fill:#000000;fill-opacity:1;fill-rule:nonzero;stroke:none"
         transform="matrix(0,1,1,0,249.1,262.71)"><tspan
           id="tspan392"
           y="0"
           x="0 11.552 19.312 26.416 30.416 38.416 42.416 47.743999 55.743999 59.743999 67.744003 71.744003 85.071999">Axe 2 (7.7 %)</tspan></text>
</g><g
       id="g396" /><g
       id="g398" /><g
       id="g400" /><g
       id="g402" /><g
       id="g404" /><g
       id="g406" /><g
       id="g408" /><g
       id="g410" /><g
       id="g412" /><g
       id="g414" /><g
       id="g416" /><g
       id="g418" /><g
       id="g420" /></g></svg>