<?xml version="1.0" encoding="UTF-8" standalone="no"?>
<svg
   xmlns:dc="http://purl.org/dc/elements/1.1/"
   xmlns:cc="http://creativecommons.org/ns#"
   xmlns:rdf="http://www.w3.org/1999/02/22-rdf-syntax-ns#"
   xmlns:svg="http://www.w3.org/2000/svg"
   xmlns="http://www.w3.org/2000/svg"
   viewBox="0 0 1893.3333 1080"
   height="1080"
   width="1893.3333"
   xml:space="preserve"
   id="svg2"
   version="1.1"><metadata
     id="metadata8"><rdf:RDF><cc:Work
         rdf:about=""><dc:format>image/svg+xml</dc:format><dc:type
           rdf:resource="http://purl.org/dc/dcmitype/StillImage" /></cc:Work></rdf:RDF></metadata><defs
     id="defs6"><clipPath
       id="clipPath36"
       clipPathUnits="userSpaceOnUse"><path
         id="path34"
         d="M 208.33,0 H 1212.17 V 810 H 208.33 Z" /></clipPath><clipPath
       id="clipPath48"
       clipPathUnits="userSpaceOnUse"><path
         id="path46"
         d="M 253.34,35.56 H 1022.3 V 804.52 H 253.34 Z" /></clipPath></defs><g
     transform="matrix(1.3333333,0,0,-1.3333333,0,1080)"
     id="g10"><g
       id="g12" /><g
       id="g14" /><g
       id="g16" /><g
       id="g18" /><g
       id="g20" /><g
       id="g22" /><g
       id="g24" /><g
       id="g26" /><g
       id="g28" /><g
       id="g30"><g
         clip-path="url(#clipPath36)"
         id="g32"><path
           id="path38"
           style="fill:#ffffff;fill-opacity:1;fill-rule:nonzero;stroke:#ffffff;stroke-width:1.07000005;stroke-linecap:round;stroke-linejoin:round;stroke-miterlimit:10;stroke-dasharray:none;stroke-opacity:1"
           d="M 208.33,0 H 1212.17 V 810 H 208.33 Z" /></g></g><g
       id="g40" /><g
       id="g42"><g
         clip-path="url(#clipPath48)"
         id="g44"><path
           id="path50"
           style="fill:#ffffff;fill-opacity:1;fill-rule:nonzero;stroke:none"
           d="M 253.34,35.56 H 1022.3 V 804.52 H 253.34 Z" /><path
           id="path52"
           style="fill:none;stroke:#ebebeb;stroke-width:0.52999997;stroke-linecap:butt;stroke-linejoin:round;stroke-miterlimit:10;stroke-dasharray:none;stroke-opacity:1"
           d="M 253.34,138.97 H 1022.3" /><path
           id="path54"
           style="fill:none;stroke:#ebebeb;stroke-width:0.52999997;stroke-linecap:butt;stroke-linejoin:round;stroke-miterlimit:10;stroke-dasharray:none;stroke-opacity:1"
           d="M 253.34,319.14 H 1022.3" /><path
           id="path56"
           style="fill:none;stroke:#ebebeb;stroke-width:0.52999997;stroke-linecap:butt;stroke-linejoin:round;stroke-miterlimit:10;stroke-dasharray:none;stroke-opacity:1"
           d="M 253.34,499.31 H 1022.3" /><path
           id="path58"
           style="fill:none;stroke:#ebebeb;stroke-width:0.52999997;stroke-linecap:butt;stroke-linejoin:round;stroke-miterlimit:10;stroke-dasharray:none;stroke-opacity:1"
           d="M 253.34,679.48 H 1022.3" /><path
           id="path60"
           style="fill:none;stroke:#ebebeb;stroke-width:0.52999997;stroke-linecap:butt;stroke-linejoin:round;stroke-miterlimit:10;stroke-dasharray:none;stroke-opacity:1"
           d="M 337.95,35.56 V 804.52" /><path
           id="path62"
           style="fill:none;stroke:#ebebeb;stroke-width:0.52999997;stroke-linecap:butt;stroke-linejoin:round;stroke-miterlimit:10;stroke-dasharray:none;stroke-opacity:1"
           d="M 528.95,35.56 V 804.52" /><path
           id="path64"
           style="fill:none;stroke:#ebebeb;stroke-width:0.52999997;stroke-linecap:butt;stroke-linejoin:round;stroke-miterlimit:10;stroke-dasharray:none;stroke-opacity:1"
           d="M 719.95,35.56 V 804.52" /><path
           id="path66"
           style="fill:none;stroke:#ebebeb;stroke-width:0.52999997;stroke-linecap:butt;stroke-linejoin:round;stroke-miterlimit:10;stroke-dasharray:none;stroke-opacity:1"
           d="M 910.95,35.56 V 804.52" /><path
           id="path68"
           style="fill:none;stroke:#ebebeb;stroke-width:1.07000005;stroke-linecap:butt;stroke-linejoin:round;stroke-miterlimit:10;stroke-dasharray:none;stroke-opacity:1"
           d="M 253.34,48.89 H 1022.3" /><path
           id="path70"
           style="fill:none;stroke:#ebebeb;stroke-width:1.07000005;stroke-linecap:butt;stroke-linejoin:round;stroke-miterlimit:10;stroke-dasharray:none;stroke-opacity:1"
           d="M 253.34,229.06 H 1022.3" /><path
           id="path72"
           style="fill:none;stroke:#ebebeb;stroke-width:1.07000005;stroke-linecap:butt;stroke-linejoin:round;stroke-miterlimit:10;stroke-dasharray:none;stroke-opacity:1"
           d="M 253.34,409.23 H 1022.3" /><path
           id="path74"
           style="fill:none;stroke:#ebebeb;stroke-width:1.07000005;stroke-linecap:butt;stroke-linejoin:round;stroke-miterlimit:10;stroke-dasharray:none;stroke-opacity:1"
           d="M 253.34,589.4 H 1022.3" /><path
           id="path76"
           style="fill:none;stroke:#ebebeb;stroke-width:1.07000005;stroke-linecap:butt;stroke-linejoin:round;stroke-miterlimit:10;stroke-dasharray:none;stroke-opacity:1"
           d="M 253.34,769.57 H 1022.3" /><path
           id="path78"
           style="fill:none;stroke:#ebebeb;stroke-width:1.07000005;stroke-linecap:butt;stroke-linejoin:round;stroke-miterlimit:10;stroke-dasharray:none;stroke-opacity:1"
           d="M 433.45,35.56 V 804.52" /><path
           id="path80"
           style="fill:none;stroke:#ebebeb;stroke-width:1.07000005;stroke-linecap:butt;stroke-linejoin:round;stroke-miterlimit:10;stroke-dasharray:none;stroke-opacity:1"
           d="M 624.45,35.56 V 804.52" /><path
           id="path82"
           style="fill:none;stroke:#ebebeb;stroke-width:1.07000005;stroke-linecap:butt;stroke-linejoin:round;stroke-miterlimit:10;stroke-dasharray:none;stroke-opacity:1"
           d="M 815.45,35.56 V 804.52" /><path
           id="path84"
           style="fill:none;stroke:#ebebeb;stroke-width:1.07000005;stroke-linecap:butt;stroke-linejoin:round;stroke-miterlimit:10;stroke-dasharray:none;stroke-opacity:1"
           d="M 1006.45,35.56 V 804.52" /><path
           id="path86"
           style="fill:#000000;fill-opacity:1;fill-rule:nonzero;stroke:none"
           d="m 517.97,769.57 c 0,1.84 1.51,3.34 3.34,3.34 1.84,0 3.35,-1.5 3.35,-3.34 0,-1.84 -1.51,-3.34 -3.35,-3.34 -1.83,0 -3.34,1.5 -3.34,3.34" /><path
           id="path88"
           style="fill:#000000;fill-opacity:1;fill-rule:nonzero;stroke:none"
           d="m 984.01,304.73 c 0,1.84 1.5,3.34 3.34,3.34 1.84,0 3.34,-1.5 3.34,-3.34 0,-1.84 -1.5,-3.34 -3.34,-3.34 -1.84,0 -3.34,1.5 -3.34,3.34" /><path
           id="path90"
           style="fill:#000000;fill-opacity:1;fill-rule:nonzero;stroke:none"
           d="m 414.83,740.74 c 0,1.84 1.51,3.34 3.34,3.34 1.84,0 3.35,-1.5 3.35,-3.34 0,-1.84 -1.51,-3.34 -3.35,-3.34 -1.83,0 -3.34,1.5 -3.34,3.34" /><path
           id="path92"
           style="fill:#000000;fill-opacity:1;fill-rule:nonzero;stroke:none"
           d="m 391.91,535.35 c 0,1.84 1.51,3.34 3.34,3.34 1.84,0 3.35,-1.5 3.35,-3.34 0,-1.84 -1.51,-3.34 -3.35,-3.34 -1.83,0 -3.34,1.5 -3.34,3.34" /><path
           id="path94"
           style="fill:#000000;fill-opacity:1;fill-rule:nonzero;stroke:none"
           d="m 495.05,189.42 c 0,1.84 1.51,3.34 3.34,3.34 1.84,0 3.35,-1.5 3.35,-3.34 0,-1.84 -1.51,-3.34 -3.35,-3.34 -1.83,0 -3.34,1.5 -3.34,3.34" /><path
           id="path96"
           style="fill:#000000;fill-opacity:1;fill-rule:nonzero;stroke:none"
           d="m 678.41,70.51 c 0,1.84 1.5,3.34 3.34,3.34 1.84,0 3.34,-1.5 3.34,-3.34 0,-1.84 -1.5,-3.34 -3.34,-3.34 -1.84,0 -3.34,1.5 -3.34,3.34" /><path
           id="path98"
           style="fill:#000000;fill-opacity:1;fill-rule:nonzero;stroke:none"
           d="m 411.01,257.89 c 0,1.83 1.51,3.34 3.34,3.34 1.84,0 3.35,-1.51 3.35,-3.34 0,-1.84 -1.51,-3.35 -3.35,-3.35 -1.83,0 -3.34,1.51 -3.34,3.35" /><path
           id="path100"
           style="fill:#000000;fill-opacity:1;fill-rule:nonzero;stroke:none"
           d="m 395.73,257.89 c 0,1.83 1.51,3.34 3.34,3.34 1.84,0 3.35,-1.51 3.35,-3.34 0,-1.84 -1.51,-3.35 -3.35,-3.35 -1.83,0 -3.34,1.51 -3.34,3.35" /><path
           id="path102"
           style="fill:#000000;fill-opacity:1;fill-rule:nonzero;stroke:none"
           d="m 678.41,340.76 c 0,1.84 1.5,3.35 3.34,3.35 1.84,0 3.34,-1.51 3.34,-3.35 0,-1.83 -1.5,-3.34 -3.34,-3.34 -1.84,0 -3.34,1.51 -3.34,3.34" /><path
           id="path104"
           style="fill:#000000;fill-opacity:1;fill-rule:nonzero;stroke:none"
           d="m 342.25,434.45 c 0,1.84 1.51,3.34 3.34,3.34 1.84,0 3.35,-1.5 3.35,-3.34 0,-1.84 -1.51,-3.34 -3.35,-3.34 -1.83,0 -3.34,1.5 -3.34,3.34" /><path
           id="path106"
           style="fill:#000000;fill-opacity:1;fill-rule:nonzero;stroke:none"
           d="m 498.87,329.95 c 0,1.84 1.51,3.35 3.34,3.35 1.84,0 3.35,-1.51 3.35,-3.35 0,-1.83 -1.51,-3.34 -3.35,-3.34 -1.83,0 -3.34,1.51 -3.34,3.34" /><path
           id="path108"
           style="fill:#000000;fill-opacity:1;fill-rule:nonzero;stroke:none"
           d="m 319.33,538.95 c 0,1.84 1.51,3.34 3.34,3.34 1.84,0 3.35,-1.5 3.35,-3.34 0,-1.84 -1.51,-3.34 -3.35,-3.34 -1.83,0 -3.34,1.5 -3.34,3.34" /><path
           id="path110"
           style="fill:#000000;fill-opacity:1;fill-rule:nonzero;stroke:none"
           d="m 708.97,185.82 c 0,1.84 1.5,3.34 3.34,3.34 1.84,0 3.34,-1.5 3.34,-3.34 0,-1.84 -1.5,-3.34 -3.34,-3.34 -1.84,0 -3.34,1.5 -3.34,3.34" /><path
           id="path112"
           style="fill:#000000;fill-opacity:1;fill-rule:nonzero;stroke:none"
           d="m 579.09,528.14 c 0,1.84 1.51,3.34 3.34,3.34 1.84,0 3.34,-1.5 3.34,-3.34 0,-1.84 -1.5,-3.34 -3.34,-3.34 -1.83,0 -3.34,1.5 -3.34,3.34" /><path
           id="path114"
           style="fill:#000000;fill-opacity:1;fill-rule:nonzero;stroke:none"
           d="m 365.17,319.14 c 0,1.84 1.51,3.35 3.34,3.35 1.84,0 3.35,-1.51 3.35,-3.35 0,-1.83 -1.51,-3.34 -3.35,-3.34 -1.83,0 -3.34,1.51 -3.34,3.34" /><path
           id="path116"
           style="fill:#000000;fill-opacity:1;fill-rule:nonzero;stroke:none"
           d="m 651.67,704.71 c 0,1.83 1.5,3.34 3.34,3.34 1.84,0 3.34,-1.51 3.34,-3.34 0,-1.84 -1.5,-3.35 -3.34,-3.35 -1.84,0 -3.34,1.51 -3.34,3.35" /><path
           id="path118"
           style="fill:#000000;fill-opacity:1;fill-rule:nonzero;stroke:none"
           d="m 586.73,351.57 c 0,1.84 1.51,3.35 3.34,3.35 1.84,0 3.34,-1.51 3.34,-3.35 0,-1.83 -1.5,-3.34 -3.34,-3.34 -1.83,0 -3.34,1.51 -3.34,3.34" /><path
           id="path120"
           style="fill:#000000;fill-opacity:1;fill-rule:nonzero;stroke:none"
           d="m 304.05,456.07 c 0,1.84 1.51,3.34 3.34,3.34 1.84,0 3.35,-1.5 3.35,-3.34 0,-1.84 -1.51,-3.34 -3.35,-3.34 -1.83,0 -3.34,1.5 -3.34,3.34" /><path
           id="path122"
           style="fill:#000000;fill-opacity:1;fill-rule:nonzero;stroke:none"
           d="m 334.61,585.79 c 0,1.84 1.51,3.35 3.34,3.35 1.84,0 3.35,-1.51 3.35,-3.35 0,-1.83 -1.51,-3.34 -3.35,-3.34 -1.83,0 -3.34,1.51 -3.34,3.34" /><path
           id="path124"
           style="fill:#000000;fill-opacity:1;fill-rule:nonzero;stroke:none"
           d="m 330.79,416.44 c 0,1.83 1.51,3.34 3.34,3.34 1.84,0 3.35,-1.51 3.35,-3.34 0,-1.84 -1.51,-3.35 -3.35,-3.35 -1.83,0 -3.34,1.51 -3.34,3.35" /><path
           id="path126"
           style="fill:#000000;fill-opacity:1;fill-rule:nonzero;stroke:none"
           d="m 670.77,387.61 c 0,1.84 1.5,3.34 3.34,3.34 1.84,0 3.34,-1.5 3.34,-3.34 0,-1.84 -1.5,-3.34 -3.34,-3.34 -1.84,0 -3.34,1.5 -3.34,3.34" /><path
           id="path128"
           style="fill:#000000;fill-opacity:1;fill-rule:nonzero;stroke:none"
           d="m 349.89,387.61 c 0,1.84 1.51,3.34 3.34,3.34 1.84,0 3.35,-1.5 3.35,-3.34 0,-1.84 -1.51,-3.34 -3.35,-3.34 -1.83,0 -3.34,1.5 -3.34,3.34" /><path
           id="path130"
           style="fill:#000000;fill-opacity:1;fill-rule:nonzero;stroke:none"
           d="m 903.79,531.74 c 0,1.84 1.5,3.35 3.34,3.35 1.84,0 3.34,-1.51 3.34,-3.35 0,-1.83 -1.5,-3.34 -3.34,-3.34 -1.84,0 -3.34,1.51 -3.34,3.34" /><path
           id="path132"
           style="fill:#000000;fill-opacity:1;fill-rule:nonzero;stroke:none"
           d="m 284.95,409.23 c 0,1.84 1.51,3.34 3.34,3.34 1.84,0 3.35,-1.5 3.35,-3.34 0,-1.84 -1.51,-3.34 -3.35,-3.34 -1.83,0 -3.34,1.5 -3.34,3.34" /><path
           id="path134"
           style="fill:#000000;fill-opacity:1;fill-rule:nonzero;stroke:none"
           d="m 678.41,412.83 c 0,1.84 1.5,3.34 3.34,3.34 1.84,0 3.34,-1.5 3.34,-3.34 0,-1.84 -1.5,-3.34 -3.34,-3.34 -1.84,0 -3.34,1.5 -3.34,3.34" /><path
           id="path136"
           style="fill:#000000;fill-opacity:1;fill-rule:nonzero;stroke:none"
           d="m 731.89,492.11 c 0,1.83 1.5,3.34 3.34,3.34 1.84,0 3.34,-1.51 3.34,-3.34 0,-1.84 -1.5,-3.35 -3.34,-3.35 -1.84,0 -3.34,1.51 -3.34,3.35" /><path
           id="path138"
           style="fill:#000000;fill-opacity:1;fill-rule:nonzero;stroke:none"
           d="m 510.33,265.09 c 0,1.84 1.51,3.34 3.34,3.34 1.84,0 3.35,-1.5 3.35,-3.34 0,-1.84 -1.51,-3.34 -3.35,-3.34 -1.83,0 -3.34,1.5 -3.34,3.34" /><path
           id="path140"
           style="fill:#000000;fill-opacity:1;fill-rule:nonzero;stroke:none"
           d="m 411.01,528.14 c 0,1.84 1.51,3.34 3.34,3.34 1.84,0 3.35,-1.5 3.35,-3.34 0,-1.84 -1.51,-3.34 -3.35,-3.34 -1.83,0 -3.34,1.5 -3.34,3.34" /><path
           id="path142"
           style="fill:#000000;fill-opacity:1;fill-rule:nonzero;stroke:none"
           d="m 823.57,711.91 c 0,1.84 1.5,3.35 3.34,3.35 1.84,0 3.34,-1.51 3.34,-3.35 0,-1.83 -1.5,-3.34 -3.34,-3.34 -1.84,0 -3.34,1.51 -3.34,3.34" /><path
           id="path144"
           style="fill:#306a8e;fill-opacity:1;fill-rule:nonzero;stroke:none"
           d="m 593.89,227.05 4.5,-7.8 h -9 z" /><path
           id="path146"
           style="fill:#306a8e;fill-opacity:1;fill-rule:nonzero;stroke:none"
           d="m 532.77,241.46 4.5,-7.79 h -9 z" /><path
           id="path148"
           style="fill:#306a8e;fill-opacity:1;fill-rule:nonzero;stroke:none"
           d="m 479.29,320.74 4.5,-7.8 h -9 z" /><path
           id="path150"
           style="fill:#306a8e;fill-opacity:1;fill-rule:nonzero;stroke:none"
           d="m 479.29,284.7 4.5,-7.79 h -9 z" /><path
           id="path152"
           style="fill:#306a8e;fill-opacity:1;fill-rule:nonzero;stroke:none"
           d="m 479.29,338.75 4.5,-7.79 h -9 z" /><path
           id="path154"
           style="fill:#306a8e;fill-opacity:1;fill-rule:nonzero;stroke:none"
           d="m 406.71,418.03 4.5,-7.8 h -9 z" /><path
           id="path156"
           style="fill:#306a8e;fill-opacity:1;fill-rule:nonzero;stroke:none"
           d="m 429.63,403.62 4.5,-7.8 h -9 z" /><path
           id="path158"
           style="fill:#306a8e;fill-opacity:1;fill-rule:nonzero;stroke:none"
           d="m 391.43,443.25 4.5,-7.79 h -9 z" /><path
           id="path160"
           style="fill:#306a8e;fill-opacity:1;fill-rule:nonzero;stroke:none"
           d="m 387.61,515.32 4.5,-7.8 h -9 z" /><text
           id="text164"
           style="font-variant:normal;font-weight:normal;font-size:13px;font-family:Helvetica;-inkscape-font-specification:Helvetica;writing-mode:lr-tb;fill:#000000;fill-opacity:1;fill-rule:nonzero;stroke:none"
           transform="matrix(1,0,0,-1,461.09,749.97)"><tspan
             id="tspan162"
             y="0"
             x="0 8.6709995 18.056999 28.171 37.556999 45.5 52.728001 59.956001 67.183998 71.513 74.737 81.964996 84.850998">ECOUT_parfois</tspan></text>
<text
           id="text168"
           style="font-variant:normal;font-weight:normal;font-size:13px;font-family:Helvetica;-inkscape-font-specification:Helvetica;writing-mode:lr-tb;fill:#000000;fill-opacity:1;fill-rule:nonzero;stroke:none"
           transform="matrix(1,0,0,-1,925.71,315.65)"><tspan
             id="tspan166"
             y="0"
             x="0 8.6709995 18.056999 28.171 37.556999 45.5 52.728001 55.613998 62.841999 73.670998 80.899002 83.785004">ECOUT_jamais</tspan></text>
<text
           id="text172"
           style="font-variant:normal;font-weight:normal;font-size:13px;font-family:Helvetica;-inkscape-font-specification:Helvetica;writing-mode:lr-tb;fill:#000000;fill-opacity:1;fill-rule:nonzero;stroke:none"
           transform="matrix(1,0,0,-1,356.28,751.81)"><tspan
             id="tspan170"
             y="0"
             x="0 9.3859997 19.5 28.886 38.271999 46.943001 55.938999 63.882 71.110001 78.337997 85.566002">CONCERT_non</tspan></text>
<text
           id="text176"
           style="font-variant:normal;font-weight:normal;font-size:13px;font-family:Helvetica;-inkscape-font-specification:Helvetica;writing-mode:lr-tb;fill:#000000;fill-opacity:1;fill-rule:nonzero;stroke:none"
           transform="matrix(1,0,0,-1,340.85,546.02)"><tspan
             id="tspan174"
             y="0"
             x="0 9.3859997 19.5 28.886 38.271999 46.943001 55.938999 63.882 71.110001 78.337997 85.566002 96.394997 103.623 106.509 113.009 120.237 127.465 134.69299">CONCERT_12mois_non</tspan></text>
<text
           id="text180"
           style="font-variant:normal;font-weight:normal;font-size:13px;font-family:Helvetica;-inkscape-font-specification:Helvetica;writing-mode:lr-tb;fill:#000000;fill-opacity:1;fill-rule:nonzero;stroke:none"
           transform="matrix(1,0,0,-1,412.45,168.84)"><tspan
             id="tspan178"
             y="0"
             x="0 9.3859997 19.5 28.886 38.271999 46.943001 55.938999 63.882 71.110001 78.337997 85.566002 96.394997 103.623 106.509 113.009 120.237 127.465 134.69299">CONCERT_12mois_oui</tspan></text>
<text
           id="text184"
           style="font-variant:normal;font-weight:normal;font-size:13px;font-family:Helvetica;-inkscape-font-specification:Helvetica;writing-mode:lr-tb;fill:#000000;fill-opacity:1;fill-rule:nonzero;stroke:none"
           transform="matrix(1,0,0,-1,634.66,48.68)"><tspan
             id="tspan182"
             y="0"
             x="0 8.6709995 12.285 21.671 30.341999 37.57 44.798 52.026001 59.254002">VINYL_oui</tspan></text>
<text
           id="text188"
           style="font-variant:normal;font-weight:normal;font-size:13px;font-family:Helvetica;-inkscape-font-specification:Helvetica;writing-mode:lr-tb;fill:#000000;fill-opacity:1;fill-rule:nonzero;stroke:none"
           transform="matrix(1,0,0,-1,405.46,236.87)"><tspan
             id="tspan186"
             y="0"
             x="0 10.829 19.5 26.728001 33.956001 41.183998 48.411999">MP3_oui</tspan></text>
<text
           id="text192"
           style="font-variant:normal;font-weight:normal;font-size:13px;font-family:Helvetica;-inkscape-font-specification:Helvetica;writing-mode:lr-tb;fill:#000000;fill-opacity:1;fill-rule:nonzero;stroke:none"
           transform="matrix(1,0,0,-1,343.2,271.2)"><tspan
             id="tspan190"
             y="0"
             x="0 8.6709995 16.614 26 34.671001 43.341999 54.171001 61.398998 68.626999 75.855003">STREAM_oui</tspan></text>
<text
           id="text196"
           style="font-variant:normal;font-weight:normal;font-size:13px;font-family:Helvetica;-inkscape-font-specification:Helvetica;writing-mode:lr-tb;fill:#000000;fill-opacity:1;fill-rule:nonzero;stroke:none"
           transform="matrix(1,0,0,-1,690.97,348.5)"><tspan
             id="tspan194"
             y="0"
             x="0 9.3859997 18.056999 27.443001 31.056999 41.171001 48.398998 55.626999 62.855">RADIO_non</tspan></text>
<text
           id="text200"
           style="font-variant:normal;font-weight:normal;font-size:13px;font-family:Helvetica;-inkscape-font-specification:Helvetica;writing-mode:lr-tb;fill:#000000;fill-opacity:1;fill-rule:nonzero;stroke:none"
           transform="matrix(1,0,0,-1,336.34,449.86)"><tspan
             id="tspan198"
             y="0"
             x="0 9.3859997 18.056999 27.443001 31.056999 41.171001 48.398998 55.626999 62.855">RADIO_oui</tspan></text>
<text
           id="text204"
           style="font-variant:normal;font-weight:normal;font-size:13px;font-family:Helvetica;-inkscape-font-specification:Helvetica;writing-mode:lr-tb;fill:#000000;fill-opacity:1;fill-rule:nonzero;stroke:none"
           transform="matrix(1,0,0,-1,506.31,341.03)"><tspan
             id="tspan202"
             y="0"
             x="0 7.9429998 16.614 23.841999 31.07 38.298">TV_non</tspan></text>
<text
           id="text208"
           style="font-variant:normal;font-weight:normal;font-size:13px;font-family:Helvetica;-inkscape-font-specification:Helvetica;writing-mode:lr-tb;fill:#000000;fill-opacity:1;fill-rule:nonzero;stroke:none"
           transform="matrix(1,0,0,-1,286.92,549.31)"><tspan
             id="tspan206"
             y="0"
             x="0 7.9429998 16.614 23.841999 31.07 38.298">TV_oui</tspan></text>
<text
           id="text212"
           style="font-variant:normal;font-weight:normal;font-size:13px;font-family:Helvetica;-inkscape-font-specification:Helvetica;writing-mode:lr-tb;fill:#000000;fill-opacity:1;fill-rule:nonzero;stroke:none"
           transform="matrix(1,0,0,-1,662.01,166.13)"><tspan
             id="tspan210"
             y="0"
             x="0 7.631 16.302 25.688 33.631001 43.016998 50.244999 57.473 64.700996">VARFR_non</tspan></text>
<text
           id="text216"
           style="font-variant:normal;font-weight:normal;font-size:13px;font-family:Helvetica;-inkscape-font-specification:Helvetica;writing-mode:lr-tb;fill:#000000;fill-opacity:1;fill-rule:nonzero;stroke:none"
           transform="matrix(1,0,0,-1,513.77,506.7)"><tspan
             id="tspan214"
             y="0"
             x="0 10.829 20.215 28.886 39.715 49.828999 59.215 68.600998 77.272003 84.5 91.727997 98.956001">MUSMONDE_oui</tspan></text>
<text
           id="text220"
           style="font-variant:normal;font-weight:normal;font-size:13px;font-family:Helvetica;-inkscape-font-specification:Helvetica;writing-mode:lr-tb;fill:#000000;fill-opacity:1;fill-rule:nonzero;stroke:none"
           transform="matrix(1,0,0,-1,306.03,298.83)"><tspan
             id="tspan218"
             y="0"
             x="0 10.829 20.215 28.886 36.828999 46.215 54.886002 64.272003 71.5 78.727997 85.956001">MUSTRAD_non</tspan></text>
<text
           id="text224"
           style="font-variant:normal;font-weight:normal;font-size:13px;font-family:Helvetica;-inkscape-font-specification:Helvetica;writing-mode:lr-tb;fill:#000000;fill-opacity:1;fill-rule:nonzero;stroke:none"
           transform="matrix(1,0,0,-1,625.49,715.98)"><tspan
             id="tspan222"
             y="0"
             x="0 10.829 20.215 28.886 36.828999 46.215 54.886002 64.272003 71.5 78.727997 85.956001">MUSTRAD_oui</tspan></text>
<text
           id="text228"
           style="font-variant:normal;font-weight:normal;font-size:13px;font-family:Helvetica;-inkscape-font-specification:Helvetica;writing-mode:lr-tb;fill:#000000;fill-opacity:1;fill-rule:nonzero;stroke:none"
           transform="matrix(1,0,0,-1,566.16,361.77)"><tspan
             id="tspan226"
             y="0"
             x="0 7.631 16.302 25.688 29.302 38.688 46.631001 53.859001 61.087002 68.315002">VARINT_non</tspan></text>
<text
           id="text232"
           style="font-variant:normal;font-weight:normal;font-size:13px;font-family:Helvetica;-inkscape-font-specification:Helvetica;writing-mode:lr-tb;fill:#000000;fill-opacity:1;fill-rule:nonzero;stroke:none"
           transform="matrix(1,0,0,-1,256.99,434.62)"><tspan
             id="tspan230"
             y="0"
             x="0 7.631 16.302 25.688 29.302 38.688 46.631001 53.859001 61.087002 68.315002">VARINT_oui</tspan></text>
<text
           id="text236"
           style="font-variant:normal;font-weight:normal;font-size:13px;font-family:Helvetica;-inkscape-font-specification:Helvetica;writing-mode:lr-tb;fill:#000000;fill-opacity:1;fill-rule:nonzero;stroke:none"
           transform="matrix(1,0,0,-1,296.17,596.13)"><tspan
             id="tspan234"
             y="0"
             x="0 9.3859997 18.771999 27.443001 34.671001 41.898998 49.126999">RNB_oui</tspan></text>
<text
           id="text240"
           style="font-variant:normal;font-weight:normal;font-size:13px;font-family:Helvetica;-inkscape-font-specification:Helvetica;writing-mode:lr-tb;fill:#000000;fill-opacity:1;fill-rule:nonzero;stroke:none"
           transform="matrix(1,0,0,-1,282.94,389.51)"><tspan
             id="tspan238"
             y="0"
             x="0 6.2399998 14.911 22.854 30.797001 38.025002 45.252998 52.480999">JAZZ_non</tspan></text>
<text
           id="text244"
           style="font-variant:normal;font-weight:normal;font-size:13px;font-family:Helvetica;-inkscape-font-specification:Helvetica;writing-mode:lr-tb;fill:#000000;fill-opacity:1;fill-rule:nonzero;stroke:none"
           transform="matrix(1,0,0,-1,663.27,367)"><tspan
             id="tspan242"
             y="0"
             x="0 6.2399998 14.911 22.854 30.797001 38.025002 45.252998 52.480999">JAZZ_oui</tspan></text>
<text
           id="text248"
           style="font-variant:normal;font-weight:normal;font-size:13px;font-family:Helvetica;-inkscape-font-specification:Helvetica;writing-mode:lr-tb;fill:#000000;fill-opacity:1;fill-rule:nonzero;stroke:none"
           transform="matrix(1,0,0,-1,345.32,367.85)"><tspan
             id="tspan246"
             y="0"
             x="0 10.114 18.785 27.455999 36.841999 45.513 52.741001 59.969002 67.196999">OPERA_non</tspan></text>
<text
           id="text252"
           style="font-variant:normal;font-weight:normal;font-size:13px;font-family:Helvetica;-inkscape-font-specification:Helvetica;writing-mode:lr-tb;fill:#000000;fill-opacity:1;fill-rule:nonzero;stroke:none"
           transform="matrix(1,0,0,-1,887.84,544)"><tspan
             id="tspan250"
             y="0"
             x="0 10.114 18.785 27.455999 36.841999 45.513 52.741001 59.969002 67.196999">OPERA_oui</tspan></text>
<text
           id="text256"
           style="font-variant:normal;font-weight:normal;font-size:13px;font-family:Helvetica;-inkscape-font-specification:Helvetica;writing-mode:lr-tb;fill:#000000;fill-opacity:1;fill-rule:nonzero;stroke:none"
           transform="matrix(1,0,0,-1,256.94,362.99)"><tspan
             id="tspan254"
             y="0"
             x="0 9.3859997 16.614 25.285 33.956001 42.626999 52.013 59.241001 66.469002 73.696999">CLASSC_non</tspan></text>
<text
           id="text260"
           style="font-variant:normal;font-weight:normal;font-size:13px;font-family:Helvetica;-inkscape-font-specification:Helvetica;writing-mode:lr-tb;fill:#000000;fill-opacity:1;fill-rule:nonzero;stroke:none"
           transform="matrix(1,0,0,-1,594.99,398.19)"><tspan
             id="tspan258"
             y="0"
             x="0 9.3859997 16.614 25.285 33.956001 42.626999 52.013 59.241001 66.469002 73.696999">CLASSC_oui</tspan></text>
<text
           id="text264"
           style="font-variant:normal;font-weight:normal;font-size:13px;font-family:Helvetica;-inkscape-font-specification:Helvetica;writing-mode:lr-tb;fill:#000000;fill-opacity:1;fill-rule:nonzero;stroke:none"
           transform="matrix(1,0,0,-1,700.58,503.2)"><tspan
             id="tspan262"
             y="0"
             x="0 8.0209999 17.407 25.35 34.736 41.964001 50.634998 60.021 70.135002 77.362999 84.591003 91.819">AUTRLANG_non</tspan></text>
<text
           id="text268"
           style="font-variant:normal;font-weight:normal;font-size:13px;font-family:Helvetica;-inkscape-font-specification:Helvetica;writing-mode:lr-tb;fill:#000000;fill-opacity:1;fill-rule:nonzero;stroke:none"
           transform="matrix(1,0,0,-1,521.2,246.81)"><tspan
             id="tspan266"
             y="0"
             x="0 7.1110001 15.054 22.997 31.667999 41.054001 48.997002 52.611 60.554001 67.781998 75.010002 82.237999 86.567001 89.791 97.018997 99.904999">ATTENTIF_parfois</tspan></text>
<text
           id="text272"
           style="font-variant:normal;font-weight:normal;font-size:13px;font-family:Helvetica;-inkscape-font-specification:Helvetica;writing-mode:lr-tb;fill:#000000;fill-opacity:1;fill-rule:nonzero;stroke:none"
           transform="matrix(1,0,0,-1,398.47,508.16)"><tspan
             id="tspan270"
             y="0"
             x="0 7.1110001 15.054 22.997 31.667999 41.054001 48.997002 52.611 60.554001 67.781998 70.667999 77.896004 88.724998 95.953003 98.838997">ATTENTIF_jamais</tspan></text>
<text
           id="text276"
           style="font-variant:normal;font-weight:normal;font-size:13px;font-family:Helvetica;-inkscape-font-specification:Helvetica;writing-mode:lr-tb;fill:#000000;fill-opacity:1;fill-rule:nonzero;stroke:none"
           transform="matrix(1,0,0,-1,813.65,722.7)"><tspan
             id="tspan274"
             y="0"
             x="0 7.2280002 13.728 16.614 23.841999 30.341999 33.956001 36.841999 44.07 51.298">eclectique</tspan></text>
<text
           id="text280"
           style="font-variant:normal;font-weight:normal;font-size:13px;font-family:Helvetica;-inkscape-font-specification:Helvetica;writing-mode:lr-tb;fill:#306a8e;fill-opacity:1;fill-rule:nonzero;stroke:none"
           transform="matrix(1,0,0,-1,574.55,199.94)"><tspan
             id="tspan278"
             y="0"
             x="0 9.3859997 16.614 23.841999 28.171 35.398998 42.626999 46.241001 49.855 56.355 63.583 70.356003">Reprod. sup.</tspan></text>
<text
           id="text284"
           style="font-variant:normal;font-weight:normal;font-size:13px;font-family:Helvetica;-inkscape-font-specification:Helvetica;writing-mode:lr-tb;fill:#306a8e;fill-opacity:1;fill-rule:nonzero;stroke:none"
           transform="matrix(1,0,0,-1,468.13,215.51)"><tspan
             id="tspan282"
             y="0"
             x="0 10.829 18.056999 24.764999 28.379 31.993 42.821999 49.66 56.16 59.773998 63.388 70.980003 74.594002 81.094002 88.321999 95.095001">Mob. moy. − sup.</tspan></text>
<text
           id="text288"
           style="font-variant:normal;font-weight:normal;font-size:13px;font-family:Helvetica;-inkscape-font-specification:Helvetica;writing-mode:lr-tb;fill:#306a8e;fill-opacity:1;fill-rule:nonzero;stroke:none"
           transform="matrix(1,0,0,-1,414.09,293.66)"><tspan
             id="tspan286"
             y="0"
             x="0 10.829 18.056999 24.764999 28.379 31.993 39.221001 46.449001 53.222 56.835999 60.450001 68.042 71.655998 78.155998 85.384003 92.156998">Mob. pop. − sup.</tspan></text>
<text
           id="text292"
           style="font-variant:normal;font-weight:normal;font-size:13px;font-family:Helvetica;-inkscape-font-specification:Helvetica;writing-mode:lr-tb;fill:#306a8e;fill-opacity:1;fill-rule:nonzero;stroke:none"
           transform="matrix(1,0,0,-1,489.4,276.3)"><tspan
             id="tspan290"
             y="0"
             x="0 10.829 18.056999 24.764999 28.379 31.993 38.493 45.721001 52.493999 56.108002 59.722 67.314003 70.928001 81.757004 88.595001 95.095001">Mob. sup. − moy.</tspan></text>
<text
           id="text296"
           style="font-variant:normal;font-weight:normal;font-size:13px;font-family:Helvetica;-inkscape-font-specification:Helvetica;writing-mode:lr-tb;fill:#306a8e;fill-opacity:1;fill-rule:nonzero;stroke:none"
           transform="matrix(1,0,0,-1,421.1,343.78)"><tspan
             id="tspan294"
             y="0"
             x="0 9.3859997 16.614 23.841999 28.171 35.398998 42.626999 46.241001 49.855 60.683998 67.522003 74.022003">Reprod. moy.</tspan></text>
<text
           id="text300"
           style="font-variant:normal;font-weight:normal;font-size:13px;font-family:Helvetica;-inkscape-font-specification:Helvetica;writing-mode:lr-tb;fill:#306a8e;fill-opacity:1;fill-rule:nonzero;stroke:none"
           transform="matrix(1,0,0,-1,439.59,400.86)"><tspan
             id="tspan298"
             y="0"
             x="0 10.829 18.056999 24.764999 28.379 31.993 39.221001 46.449001 53.222 56.835999 60.450001 68.042 71.655998 82.485001 89.322998 95.822998">Mob. pop. − moy.</tspan></text>
<text
           id="text304"
           style="font-variant:normal;font-weight:normal;font-size:13px;font-family:Helvetica;-inkscape-font-specification:Helvetica;writing-mode:lr-tb;fill:#306a8e;fill-opacity:1;fill-rule:nonzero;stroke:none"
           transform="matrix(1,0,0,-1,428.32,378.86)"><tspan
             id="tspan302"
             y="0"
             x="0 10.829 18.056999 24.764999 28.379 31.993 38.493 45.721001 52.493999 56.108002 59.722 67.314003 70.928001 78.155998 85.384003 92.156998">Mob. sup. − pop.</tspan></text>
<text
           id="text308"
           style="font-variant:normal;font-weight:normal;font-size:13px;font-family:Helvetica;-inkscape-font-specification:Helvetica;writing-mode:lr-tb;fill:#306a8e;fill-opacity:1;fill-rule:nonzero;stroke:none"
           transform="matrix(1,0,0,-1,401.55,423.29)"><tspan
             id="tspan306"
             y="0"
             x="0 10.829 18.056999 24.764999 28.379 31.993 42.821999 49.66 56.16 59.773998 63.388 70.980003 74.594002 81.821999 89.050003 95.822998">Mob. moy. − pop.</tspan></text>
<text
           id="text312"
           style="font-variant:normal;font-weight:normal;font-size:13px;font-family:Helvetica;-inkscape-font-specification:Helvetica;writing-mode:lr-tb;fill:#306a8e;fill-opacity:1;fill-rule:nonzero;stroke:none"
           transform="matrix(1,0,0,-1,305.03,519.18)"><tspan
             id="tspan310"
             y="0"
             x="0 9.3859997 16.614 23.841999 28.171 35.398998 42.626999 46.241001 49.855 57.083 64.310997 71.084">Reprod. pop.</tspan></text>
<path
           id="path314"
           style="fill:none;stroke:#a9a9a9;stroke-width:1.07000005;stroke-linecap:butt;stroke-linejoin:round;stroke-miterlimit:10;stroke-dasharray:7.47, 3.2;stroke-dashoffset:0;stroke-opacity:1"
           d="M 253.34,409.23 H 1022.3" /><path
           id="path316"
           style="fill:none;stroke:#a9a9a9;stroke-width:1.07000005;stroke-linecap:butt;stroke-linejoin:round;stroke-miterlimit:10;stroke-dasharray:7.47, 3.2;stroke-dashoffset:0;stroke-opacity:1"
           d="M 433.45,35.56 V 804.52" /><path
           id="path318"
           style="fill:none;stroke:#333333;stroke-width:1.07000005;stroke-linecap:round;stroke-linejoin:round;stroke-miterlimit:10;stroke-dasharray:none;stroke-opacity:1"
           d="M 253.34,35.56 H 1022.3 V 804.52 H 253.34 Z" /></g></g><g
       id="g320" /><g
       id="g322" /><g
       id="g324" /><g
       id="g326" /><g
       id="g328" /><g
       id="g330" /><g
       id="g332" /><g
       id="g334" /><g
       id="g336" /><g
       id="g338" /><g
       id="g340" /><g
       id="g342" /><g
       id="g344" /><g
       id="g346" /><g
       id="g348" /><g
       id="g350"><text
         id="text354"
         style="font-variant:normal;font-weight:normal;font-size:9px;font-family:Helvetica;-inkscape-font-specification:Helvetica;writing-mode:lr-tb;fill:#4d4d4d;fill-opacity:1;fill-rule:nonzero;stroke:none"
         transform="matrix(1,0,0,-1,230.64,45.66)"><tspan
           id="tspan352"
           y="0"
           x="0 5.256 10.26 12.762">−1.0</tspan></text>
<text
         id="text358"
         style="font-variant:normal;font-weight:normal;font-size:9px;font-family:Helvetica;-inkscape-font-specification:Helvetica;writing-mode:lr-tb;fill:#4d4d4d;fill-opacity:1;fill-rule:nonzero;stroke:none"
         transform="matrix(1,0,0,-1,230.64,225.83)"><tspan
           id="tspan356"
           y="0"
           x="0 5.256 10.26 12.762">−0.5</tspan></text>
<text
         id="text362"
         style="font-variant:normal;font-weight:normal;font-size:9px;font-family:Helvetica;-inkscape-font-specification:Helvetica;writing-mode:lr-tb;fill:#4d4d4d;fill-opacity:1;fill-rule:nonzero;stroke:none"
         transform="matrix(1,0,0,-1,235.9,406)"><tspan
           id="tspan360"
           y="0"
           x="0 5.0040002 7.506">0.0</tspan></text>
<text
         id="text366"
         style="font-variant:normal;font-weight:normal;font-size:9px;font-family:Helvetica;-inkscape-font-specification:Helvetica;writing-mode:lr-tb;fill:#4d4d4d;fill-opacity:1;fill-rule:nonzero;stroke:none"
         transform="matrix(1,0,0,-1,235.9,586.17)"><tspan
           id="tspan364"
           y="0"
           x="0 5.0040002 7.506">0.5</tspan></text>
<text
         id="text370"
         style="font-variant:normal;font-weight:normal;font-size:9px;font-family:Helvetica;-inkscape-font-specification:Helvetica;writing-mode:lr-tb;fill:#4d4d4d;fill-opacity:1;fill-rule:nonzero;stroke:none"
         transform="matrix(1,0,0,-1,235.9,766.34)"><tspan
           id="tspan368"
           y="0"
           x="0 5.0040002 7.506">1.0</tspan></text>
</g><g
       id="g372" /><g
       id="g374" /><g
       id="g376"><path
         id="path378"
         style="fill:none;stroke:#333333;stroke-width:1.07000005;stroke-linecap:butt;stroke-linejoin:round;stroke-miterlimit:10;stroke-dasharray:none;stroke-opacity:1"
         d="m 250.6,48.89 h 2.74" /><path
         id="path380"
         style="fill:none;stroke:#333333;stroke-width:1.07000005;stroke-linecap:butt;stroke-linejoin:round;stroke-miterlimit:10;stroke-dasharray:none;stroke-opacity:1"
         d="m 250.6,229.06 h 2.74" /><path
         id="path382"
         style="fill:none;stroke:#333333;stroke-width:1.07000005;stroke-linecap:butt;stroke-linejoin:round;stroke-miterlimit:10;stroke-dasharray:none;stroke-opacity:1"
         d="m 250.6,409.23 h 2.74" /><path
         id="path384"
         style="fill:none;stroke:#333333;stroke-width:1.07000005;stroke-linecap:butt;stroke-linejoin:round;stroke-miterlimit:10;stroke-dasharray:none;stroke-opacity:1"
         d="m 250.6,589.4 h 2.74" /><path
         id="path386"
         style="fill:none;stroke:#333333;stroke-width:1.07000005;stroke-linecap:butt;stroke-linejoin:round;stroke-miterlimit:10;stroke-dasharray:none;stroke-opacity:1"
         d="m 250.6,769.57 h 2.74" /></g><g
       id="g388" /><g
       id="g390" /><g
       id="g392" /><g
       id="g394" /><g
       id="g396" /><g
       id="g398" /><g
       id="g400" /><g
       id="g402" /><g
       id="g404" /><g
       id="g406" /><g
       id="g408"><path
         id="path410"
         style="fill:none;stroke:#333333;stroke-width:1.07000005;stroke-linecap:butt;stroke-linejoin:round;stroke-miterlimit:10;stroke-dasharray:none;stroke-opacity:1"
         d="m 433.45,32.82 v 2.74" /><path
         id="path412"
         style="fill:none;stroke:#333333;stroke-width:1.07000005;stroke-linecap:butt;stroke-linejoin:round;stroke-miterlimit:10;stroke-dasharray:none;stroke-opacity:1"
         d="m 624.45,32.82 v 2.74" /><path
         id="path414"
         style="fill:none;stroke:#333333;stroke-width:1.07000005;stroke-linecap:butt;stroke-linejoin:round;stroke-miterlimit:10;stroke-dasharray:none;stroke-opacity:1"
         d="m 815.45,32.82 v 2.74" /><path
         id="path416"
         style="fill:none;stroke:#333333;stroke-width:1.07000005;stroke-linecap:butt;stroke-linejoin:round;stroke-miterlimit:10;stroke-dasharray:none;stroke-opacity:1"
         d="m 1006.45,32.82 v 2.74" /></g><g
       id="g418" /><g
       id="g420"><text
         id="text424"
         style="font-variant:normal;font-weight:normal;font-size:9px;font-family:Helvetica;-inkscape-font-specification:Helvetica;writing-mode:lr-tb;fill:#4d4d4d;fill-opacity:1;fill-rule:nonzero;stroke:none"
         transform="matrix(1,0,0,-1,427.2,24.16)"><tspan
           id="tspan422"
           y="0"
           x="0 5.0040002 7.506">0.0</tspan></text>
<text
         id="text428"
         style="font-variant:normal;font-weight:normal;font-size:9px;font-family:Helvetica;-inkscape-font-specification:Helvetica;writing-mode:lr-tb;fill:#4d4d4d;fill-opacity:1;fill-rule:nonzero;stroke:none"
         transform="matrix(1,0,0,-1,618.2,24.16)"><tspan
           id="tspan426"
           y="0"
           x="0 5.0040002 7.506">0.5</tspan></text>
<text
         id="text432"
         style="font-variant:normal;font-weight:normal;font-size:9px;font-family:Helvetica;-inkscape-font-specification:Helvetica;writing-mode:lr-tb;fill:#4d4d4d;fill-opacity:1;fill-rule:nonzero;stroke:none"
         transform="matrix(1,0,0,-1,809.2,24.16)"><tspan
           id="tspan430"
           y="0"
           x="0 5.0040002 7.506">1.0</tspan></text>
<text
         id="text436"
         style="font-variant:normal;font-weight:normal;font-size:9px;font-family:Helvetica;-inkscape-font-specification:Helvetica;writing-mode:lr-tb;fill:#4d4d4d;fill-opacity:1;fill-rule:nonzero;stroke:none"
         transform="matrix(1,0,0,-1,1000.2,24.16)"><tspan
           id="tspan434"
           y="0"
           x="0 5.0040002 7.506">1.5</tspan></text>
</g><g
       id="g438" /><g
       id="g440" /><g
       id="g442" /><g
       id="g444" /><g
       id="g446" /><g
       id="g448" /><g
       id="g450" /><g
       id="g452"><text
         id="text456"
         style="font-variant:normal;font-weight:normal;font-size:16px;font-family:Times;-inkscape-font-specification:Times-Roman;writing-mode:lr-tb;fill:#000000;fill-opacity:1;fill-rule:nonzero;stroke:none"
         transform="matrix(1,0,0,-1,592.62,8.98)"><tspan
           id="tspan454"
           y="0"
           x="0 11.552 19.312 26.416 30.416 38.416 42.416 47.743999 55.743999 59.743999 67.744003 71.744003 85.071999">Axe 3 (6.8 %)</tspan></text>
</g><g
       id="g458" /><g
       id="g460" /><g
       id="g462"><text
         id="text466"
         style="font-variant:normal;font-weight:normal;font-size:16px;font-family:Times;-inkscape-font-specification:Times-Roman;writing-mode:lr-tb;fill:#000000;fill-opacity:1;fill-rule:nonzero;stroke:none"
         transform="matrix(0,1,1,0,224.4,374.84)"><tspan
           id="tspan464"
           y="0"
           x="0 11.552 19.312 26.416 30.416 38.416 42.416 47.743999 55.743999 59.743999 67.744003 71.744003 85.071999">Axe 4 (5.4 %)</tspan></text>
</g><g
       id="g468" /><g
       id="g470" /><g
       id="g472" /><g
       id="g474" /><g
       id="g476" /><g
       id="g478" /><g
       id="g480" /><g
       id="g482" /><g
       id="g484"><path
         id="path486"
         style="fill:#ffffff;fill-opacity:1;fill-rule:nonzero;stroke:none"
         d="m 1033.26,386.25 h 173.43 v 67.57 h -173.43 z" /></g><g
       id="g488" /><g
       id="g490" /><g
       id="g492" /><g
       id="g494"><text
         id="text498"
         style="font-variant:normal;font-weight:normal;font-size:16px;font-family:Times;-inkscape-font-specification:Times-Roman;writing-mode:lr-tb;fill:#000000;fill-opacity:1;fill-rule:nonzero;stroke:none"
         transform="matrix(1,0,0,-1,1038.74,436.01)"><tspan
           id="tspan496"
           y="0"
           x="0 8.4960003 16.496 24.496 31.6 35.599998 43.599998 50.703999 56.928001 60.928001 68.528 75.632004 80.959999 85.407997 92.512001 100.512 104.96 112.064">Type des variables</tspan></text>
</g><g
       id="g500" /><g
       id="g502" /><g
       id="g504" /><g
       id="g506"><path
         id="path508"
         style="fill:#ffffff;fill-opacity:1;fill-rule:nonzero;stroke:none"
         d="m 1038.74,409.01 h 17.28 v 17.28 h -17.28 z" /></g><g
       id="g510" /><g
       id="g512"><path
         id="path514"
         style="fill:#000000;fill-opacity:1;fill-rule:nonzero;stroke:none"
         d="m 1043.83,417.65 c 0,1.96 1.6,3.56 3.55,3.56 1.96,0 3.56,-1.6 3.56,-3.56 0,-1.95 -1.6,-3.55 -3.56,-3.55 -1.95,0 -3.55,1.6 -3.55,3.55" /></g><g
       id="g516" /><g
       id="g518"><path
         id="path520"
         style="fill:#ffffff;fill-opacity:1;fill-rule:nonzero;stroke:none"
         d="m 1038.74,391.73 h 17.28 v 17.28 h -17.28 z" /></g><g
       id="g522" /><g
       id="g524"><path
         id="path526"
         style="fill:#000000;fill-opacity:1;fill-rule:nonzero;stroke:none"
         d="m 1047.38,405.9 4.79,-8.29 h -9.57 z" /></g><g
       id="g528" /><g
       id="g530" /><g
       id="g532" /><g
       id="g534"><text
         id="text538"
         style="font-variant:normal;font-weight:normal;font-size:14px;font-family:Times;-inkscape-font-specification:Times-Roman;writing-mode:lr-tb;fill:#000000;fill-opacity:1;fill-rule:nonzero;stroke:none"
         transform="matrix(1,0,0,-1,1063.99,413.02)"><tspan
           id="tspan536"
           y="0"
           x="0 8.5539999 14.77 19.431999 23.323999 29.540001 36.540001 40.431999 46.647999 50.147999 56.363998 62.580002 66.472 70.363998 77.153999">Variable active</tspan></text>
</g><g
       id="g540" /><g
       id="g542" /><g
       id="g544" /><g
       id="g546" /><g
       id="g548" /><g
       id="g550"><text
         id="text554"
         style="font-variant:normal;font-weight:normal;font-size:14px;font-family:Times;-inkscape-font-specification:Times-Roman;writing-mode:lr-tb;fill:#000000;fill-opacity:1;fill-rule:nonzero;stroke:none"
         transform="matrix(1,0,0,-1,1063.99,395.74)"><tspan
           id="tspan552"
           y="0"
           x="0 8.5539999 14.77 19.431999 23.323999 29.540001 36.540001 40.431999 46.647999 50.147999 55.594002 62.594002 69.594002 76.594002 80.486 86.702003 97.594002 103.81 110.81 114.702 120.918 124.81 129.472">Variable supplémentaire</tspan></text>
</g><g
       id="g556" /><g
       id="g558" /><g
       id="g560" /><g
       id="g562" /><g
       id="g564" /><g
       id="g566" /><g
       id="g568" /><g
       id="g570" /><g
       id="g572" /><g
       id="g574" /><g
       id="g576" /><g
       id="g578" /><g
       id="g580" /><g
       id="g582" /><g
       id="g584" /><g
       id="g586" /></g></svg>