<svg width="2077" height="1303" xmlns="http://www.w3.org/2000/svg" xmlns:xlink="http://www.w3.org/1999/xlink" xml:space="preserve" overflow="hidden"><defs><clipPath id="clip0"><rect x="324" y="324" width="2077" height="1303"/></clipPath></defs><g clip-path="url(#clip0)" transform="translate(-324 -324)"><rect x="325" y="325" width="2074" height="1300" fill="#FFFFFF"/><g><path d="M1036.53 397.5 1036.53 1469.5M1346.54 397.5 1346.54 1469.5M1656.55 397.5 1656.55 1469.5M1966.56 397.5 1966.56 1469.5M2276.5 397.5 2276.5 1469.5" stroke="#D9D9D9" stroke-width="3.4375" stroke-linejoin="round" stroke-miterlimit="10" fill="none"/></g><g><path d="M1885.06 1450.05 727 1450.05 727 1425.05 1885.06 1425.05ZM1839.06 1387.05 727 1387.05 727 1362.04 1839.06 1362.04ZM1744.06 1324.04 727 1324.04 727 1299.04 1744.06 1299.04ZM1561.05 1261.04 727 1261.04 727 1236.04 1561.05 1236.04ZM1501.05 1198.04 727 1198.04 727 1173.04 1501.05 1173.04ZM1311.04 1135.04 727 1135.04 727 1110.04 1311.04 1110.04ZM1237.04 1072.04 727 1072.04 727 1047.03 1237.04 1047.03ZM1179.04 1009.03 727 1009.03 727 984.032 1179.04 984.032ZM1107.04 946.031 727 946.031 727 921.03 1107.04 921.03ZM1095.04 883.029 727 883.029 727 858.028 1095.04 858.028ZM1092.04 820.027 727 820.027 727 795.026 1092.04 795.026ZM1061.03 757.025 727 757.025 727 731.024 1061.03 731.024ZM1055.03 694.023 727 694.023 727 668.022 1055.03 668.022ZM1031.03 631.021 727 631.021 727 605.02 1031.03 605.02ZM958.031 568.019 727 568.019 727 542.018 958.031 542.018ZM934.031 505.017 727 505.017 727 479.016 934.031 479.016ZM890.029 441.014 727 441.014 727 416.014 890.029 416.014Z" fill="#2F5597"/></g><g><path d="M2201.07 1450.05 1885.06 1450.05 1885.06 1425.05 2201.07 1425.05ZM2080.07 1387.05 1839.06 1387.05 1839.06 1362.04 2080.07 1362.04ZM1967.06 1324.04 1744.06 1324.04 1744.06 1299.04 1967.06 1299.04ZM1783.06 1261.04 1561.05 1261.04 1561.05 1236.04 1783.06 1236.04ZM1737.06 1198.04 1501.05 1198.04 1501.05 1173.04 1737.06 1173.04ZM1534.05 1135.04 1311.04 1135.04 1311.04 1110.04 1534.05 1110.04ZM1737.06 1072.04 1237.04 1072.04 1237.04 1047.03 1737.06 1047.03ZM1881.06 1009.03 1179.04 1009.03 1179.04 984.032 1881.06 984.032ZM1507.05 946.031 1107.04 946.031 1107.04 921.03 1507.05 921.03ZM1511.05 883.029 1095.04 883.029 1095.04 858.028 1511.05 858.028ZM2114.07 820.027 1092.04 820.027 1092.04 795.026 2114.07 795.026ZM1254.04 757.025 1061.03 757.025 1061.03 731.024 1254.04 731.024ZM2083.07 694.023 1055.03 694.023 1055.03 668.022 2083.07 668.022ZM1543.05 631.021 1031.03 631.021 1031.03 605.02 1543.05 605.02ZM1139.04 568.019 958.031 568.019 958.031 542.018 1139.04 542.018ZM1111.04 505.017 934.031 505.017 934.031 479.016 1111.04 479.016ZM1920.06 441.014 890.029 441.014 890.029 416.014 1920.06 416.014Z" fill="#8FAADC"/></g><g><path d="M2276.07 1450.05 2201.07 1450.05 2201.07 1425.05 2276.07 1425.05ZM2276.07 1387.05 2080.07 1387.05 2080.07 1362.04 2276.07 1362.04ZM2276.07 1324.04 1967.06 1324.04 1967.06 1299.04 2276.07 1299.04ZM2276.07 1261.04 1783.06 1261.04 1783.06 1236.04 2276.07 1236.04ZM2276.07 1198.04 1737.06 1198.04 1737.06 1173.04 2276.07 1173.04ZM2276.07 1135.04 1534.05 1135.04 1534.05 1110.04 2276.07 1110.04ZM2276.07 1072.04 1737.06 1072.04 1737.06 1047.03 2276.07 1047.03ZM2276.07 1009.03 1881.06 1009.03 1881.06 984.032 2276.07 984.032ZM2276.07 946.031 1507.05 946.031 1507.05 921.03 2276.07 921.03ZM2276.07 883.029 1511.05 883.029 1511.05 858.028 2276.07 858.028ZM2276.07 820.027 2114.07 820.027 2114.07 795.026 2276.07 795.026ZM2276.07 757.025 1254.04 757.025 1254.04 731.024 2276.07 731.024ZM2276.07 694.023 2083.07 694.023 2083.07 668.022 2276.07 668.022ZM2276.07 631.021 1543.05 631.021 1543.05 605.02 2276.07 605.02ZM2276.07 568.019 1139.04 568.019 1139.04 542.018 2276.07 542.018ZM2276.07 505.017 1111.04 505.017 1111.04 479.016 2276.07 479.016ZM2276.07 441.014 1920.06 441.014 1920.06 416.014 2276.07 416.014Z" fill="#DAE3F3"/></g><g><path d="M0 0 0.000360892 1072" stroke="#D9D9D9" stroke-width="3.4375" stroke-linejoin="round" stroke-miterlimit="10" fill="none" fill-rule="evenodd" transform="matrix(1 0 0 -1 726.5 1469.5)"/></g><g><text font-family="Calibri,Calibri_MSFontService,sans-serif" font-weight="400" font-size="41" transform="matrix(1 0 0 1 701.379 1534)">0%</text></g><g><text font-family="Calibri,Calibri_MSFontService,sans-serif" font-weight="400" font-size="41" transform="matrix(1 0 0 1 1000.92 1534)">20%</text></g><g><text font-family="Calibri,Calibri_MSFontService,sans-serif" font-weight="400" font-size="41" transform="matrix(1 0 0 1 1310.91 1534)">40%</text></g><g><text font-family="Calibri,Calibri_MSFontService,sans-serif" font-weight="400" font-size="41" transform="matrix(1 0 0 1 1620.9 1534)">60%</text></g><g><text font-family="Calibri,Calibri_MSFontService,sans-serif" font-weight="400" font-size="41" transform="matrix(1 0 0 1 1930.89 1534)">80%</text></g><g><text font-family="Calibri,Calibri_MSFontService,sans-serif" font-weight="400" font-size="41" transform="matrix(1 0 0 1 2230.43 1534)">100%</text></g><g><text font-family="Calibri,Calibri_MSFontService,sans-serif" font-weight="400" font-size="46" transform="matrix(1 0 0 1 521.375 1451)">Musique</text></g><g><text font-family="Calibri,Calibri_MSFontService,sans-serif" font-weight="400" font-size="46" transform="matrix(1 0 0 1 497.679 1388)">Télévision</text></g><g><text font-family="Calibri,Calibri_MSFontService,sans-serif" font-weight="400" font-size="46" transform="matrix(1 0 0 1 578.438 1325)">Radio</text></g><g><text font-family="Calibri,Calibri_MSFontService,sans-serif" font-weight="400" font-size="46" transform="matrix(1 0 0 1 583.411 1262)">Sport</text></g><g><text font-family="Calibri,Calibri_MSFontService,sans-serif" font-weight="400" font-size="46" transform="matrix(1 0 0 1 378.375 1199)">Réseaux Sociaux</text></g><g><text font-family="Calibri,Calibri_MSFontService,sans-serif" font-weight="400" font-size="46" transform="matrix(1 0 0 1 596.405 1136)">Web</text></g><g><text font-family="Calibri,Calibri_MSFontService,sans-serif" font-weight="400" font-size="46" transform="matrix(1 0 0 1 543.651 1073)">Cinéma</text></g><g><text font-family="Calibri,Calibri_MSFontService,sans-serif" font-weight="400" font-size="46" transform="matrix(1 0 0 1 590.905 1010)">Série</text></g><g><text font-family="Calibri,Calibri_MSFontService,sans-serif" font-weight="400" font-size="46" transform="matrix(1 0 0 1 506.709 947)">Spectacle</text></g><g><text font-family="Calibri,Calibri_MSFontService,sans-serif" font-weight="400" font-size="46" transform="matrix(1 0 0 1 472.15 884)">Jeux vidéos</text></g><g><text font-family="Calibri,Calibri_MSFontService,sans-serif" font-weight="400" font-size="46" transform="matrix(1 0 0 1 605.342 821)">Film</text></g><g><text font-family="Calibri,Calibri_MSFontService,sans-serif" font-weight="400" font-size="46" transform="matrix(1 0 0 1 473.663 758)">Monument</text></g><g><text font-family="Calibri,Calibri_MSFontService,sans-serif" font-weight="400" font-size="46" transform="matrix(1 0 0 1 365.427 695)">Sortie entre amis</text></g><g><text font-family="Calibri,Calibri_MSFontService,sans-serif" font-weight="400" font-size="46" transform="matrix(1 0 0 1 544.384 632)">Lecture</text></g><g><text font-family="Calibri,Calibri_MSFontService,sans-serif" font-weight="400" font-size="46" transform="matrix(1 0 0 1 557.263 568)">Musée</text></g><g><text font-family="Calibri,Calibri_MSFontService,sans-serif" font-weight="400" font-size="46" transform="matrix(1 0 0 1 537.853 505)">Concert</text></g><g><text font-family="Calibri,Calibri_MSFontService,sans-serif" font-weight="400" font-size="46" transform="matrix(1 0 0 1 495.961 442)">Réception</text></g><g><rect x="1087" y="1558" width="23" height="22" fill="#2F5597"/></g><g><text font-family="Calibri,Calibri_MSFontService,sans-serif" font-weight="400" font-size="41" transform="matrix(1 0 0 1 1119.73 1581)">    Souvent</text></g><g><rect x="1332" y="1558" width="22" height="22" fill="#8FAADC"/></g><g><text font-family="Calibri,Calibri_MSFontService,sans-serif" font-weight="400" font-size="41" transform="matrix(1 0 0 1 1364.08 1581)">Parfois</text></g><g><rect x="1517" y="1558" width="23" height="22" fill="#DAE3F3"/></g><g><text font-family="Calibri,Calibri_MSFontService,sans-serif" font-weight="400" font-size="41" transform="matrix(1 0 0 1 1549.47 1581)">Jamais</text></g><rect x="325.5" y="325.5" width="2074" height="1300" stroke="#A6A6A6" stroke-width="3.4375" stroke-linejoin="round" stroke-miterlimit="10" fill="none"/></g></svg>