<svg width="2731" height="1747" xmlns="http://www.w3.org/2000/svg" xmlns:xlink="http://www.w3.org/1999/xlink" xml:space="preserve" overflow="hidden"><g transform="translate(1 1)"><rect x="0" y="0" width="2728" height="1744" fill="#FFFFFF"/><g><path d="M543.518 50.5 543.518 1530.5M775.526 50.5 775.526 1530.5M1006.53 50.5 1006.53 1530.5M1238.54 50.5 1238.54 1530.5M1470.55 50.5 1470.55 1530.5M1701.56 50.5 1701.56 1530.5M1933.56 50.5 1933.56 1530.5M2165.57 50.5 2165.57 1530.5M2396.58 50.5 2396.58 1530.5M2628.5 50.5 2628.5 1530.5" stroke="#D9D9D9" stroke-width="3.4375" stroke-linejoin="round" stroke-miterlimit="10" fill="none"/></g><g><path d="M680.022 1512.05 312 1512.05 312 1486.05 680.022 1486.05ZM660.022 1447.05 312 1447.05 312 1422.05 660.022 1422.05ZM659.022 1383.05 312 1383.05 312 1357.04 659.022 1357.04ZM636.021 1319.04 312 1319.04 312 1293.04 636.021 1293.04ZM587.019 1254.04 312 1254.04 312 1228.04 587.019 1228.04ZM589.019 1190.04 312 1190.04 312 1164.04 589.019 1164.04ZM593.019 1126.04 312 1126.04 312 1100.04 593.019 1100.04ZM566.019 1061.03 312 1061.03 312 1035.03 566.019 1035.03ZM564.018 997.033 312 997.033 312 971.032 564.018 971.032ZM564.018 932.031 312 932.031 312 907.03 564.018 907.03ZM541.018 868.029 312 868.029 312 842.028 541.018 842.028ZM535.018 804.026 312 804.026 312 778.026 535.018 778.026ZM529.017 739.024 312 739.024 312 714.023 529.017 714.023ZM531.017 675.022 312 675.022 312 649.021 531.017 649.021ZM514.017 611.02 312 611.02 312 585.019 514.017 585.019ZM514.017 546.018 312 546.018 312 521.017 514.017 521.017ZM510.017 482.016 312 482.016 312 456.015 510.017 456.015ZM492.016 418.014 312 418.014 312 392.013 492.016 392.013ZM472.015 353.012 312 353.012 312 328.011 472.015 328.011ZM468.015 289.009 312 289.009 312 263.009 468.015 263.009ZM463.015 225.007 312 225.007 312 199.007 463.015 199.007ZM452.015 160.005 312 160.005 312 134.004 452.015 134.004ZM419.014 96.0032 312 96.0032 312 70.0023 419.014 70.0023Z" fill="#0088EE"/></g><g><path d="M1509.05 1512.05 680.022 1512.05 680.022 1486.05 1509.05 1486.05ZM1681.06 1447.05 660.022 1447.05 660.022 1422.05 1681.06 1422.05ZM1864.06 1383.05 659.022 1383.05 659.022 1357.04 1864.06 1357.04ZM1608.05 1319.04 636.021 1319.04 636.021 1293.04 1608.05 1293.04ZM1482.05 1254.04 587.019 1254.04 587.019 1228.04 1482.05 1228.04ZM1557.05 1190.04 589.019 1190.04 589.019 1164.04 1557.05 1164.04ZM1575.05 1126.04 593.019 1126.04 593.019 1100.04 1575.05 1100.04ZM1515.05 1061.03 566.019 1061.03 566.019 1035.03 1515.05 1035.03ZM1413.05 997.033 564.018 997.033 564.018 971.032 1413.05 971.032ZM1665.05 932.031 564.018 932.031 564.018 907.03 1665.05 907.03ZM1330.04 868.029 541.018 868.029 541.018 842.028 1330.04 842.028ZM1372.05 804.026 535.018 804.026 535.018 778.026 1372.05 778.026ZM1244.04 739.024 529.017 739.024 529.017 714.023 1244.04 714.023ZM1347.04 675.022 531.017 675.022 531.017 649.021 1347.04 649.021ZM1211.04 611.02 514.017 611.02 514.017 585.019 1211.04 585.019ZM1281.04 546.018 514.017 546.018 514.017 521.017 1281.04 521.017ZM1301.04 482.016 510.017 482.016 510.017 456.015 1301.04 456.015ZM1344.04 418.014 492.016 418.014 492.016 392.013 1344.04 392.013ZM1191.04 353.012 472.015 353.012 472.015 328.011 1191.04 328.011ZM1095.04 289.009 468.015 289.009 468.015 263.009 1095.04 263.009ZM1278.04 225.007 463.015 225.007 463.015 199.007 1278.04 199.007ZM1201.04 160.005 452.015 160.005 452.015 134.004 1201.04 134.004ZM1093.04 96.0032 419.014 96.0032 419.014 70.0023 1093.04 70.0023Z" fill="#76B54B"/></g><g><path d="M1832.06 1512.05 1509.05 1512.05 1509.05 1486.05 1832.06 1486.05ZM1983.07 1447.05 1681.06 1447.05 1681.06 1422.05 1983.07 1422.05ZM2211.07 1383.05 1864.06 1383.05 1864.06 1357.04 2211.07 1357.04ZM2001.07 1319.04 1608.05 1319.04 1608.05 1293.04 2001.07 1293.04ZM1826.06 1254.04 1482.05 1254.04 1482.05 1228.04 1826.06 1228.04ZM1925.06 1190.04 1557.05 1190.04 1557.05 1164.04 1925.06 1164.04ZM1903.06 1126.04 1575.05 1126.04 1575.05 1100.04 1903.06 1100.04ZM1886.06 1061.03 1515.05 1061.03 1515.05 1035.03 1886.06 1035.03ZM1688.06 997.033 1413.05 997.033 1413.05 971.032 1688.06 971.032ZM1940.06 932.031 1665.05 932.031 1665.05 907.03 1940.06 907.03ZM1678.06 868.029 1330.04 868.029 1330.04 842.028 1678.06 842.028ZM1721.06 804.026 1372.05 804.026 1372.05 778.026 1721.06 778.026ZM1590.05 739.024 1244.04 739.024 1244.04 714.023 1590.05 714.023ZM1696.06 675.022 1347.04 675.022 1347.04 649.021 1696.06 649.021ZM1513.05 611.02 1211.04 611.02 1211.04 585.019 1513.05 585.019ZM1722.06 546.018 1281.04 546.018 1281.04 521.017 1722.06 521.017ZM1674.05 482.016 1301.04 482.016 1301.04 456.015 1674.05 456.015ZM1546.05 418.014 1344.04 418.014 1344.04 392.013 1546.05 392.013ZM1515.05 353.012 1191.04 353.012 1191.04 328.011 1515.05 328.011ZM1420.05 289.009 1095.04 289.009 1095.04 263.009 1420.05 263.009ZM1557.05 225.007 1278.04 225.007 1278.04 199.007 1557.05 199.007ZM1552.05 160.005 1201.04 160.005 1201.04 134.004 1552.05 134.004ZM1372.05 96.0032 1093.04 96.0032 1093.04 70.0023 1372.05 70.0023Z" fill="#F2BE00"/></g><g><path d="M2430.08 1512.05 1832.06 1512.05 1832.06 1486.05 2430.08 1486.05ZM2447.08 1447.05 1983.07 1447.05 1983.07 1422.05 2447.08 1422.05ZM2427.08 1383.05 2211.07 1383.05 2211.07 1357.04 2427.08 1357.04ZM2534.08 1319.04 2001.07 1319.04 2001.07 1293.04 2534.08 1293.04ZM2422.08 1254.04 1826.06 1254.04 1826.06 1228.04 2422.08 1228.04ZM2479.08 1190.04 1925.06 1190.04 1925.06 1164.04 2479.08 1164.04ZM2324.08 1126.04 1903.06 1126.04 1903.06 1100.04 2324.08 1100.04ZM2510.08 1061.03 1886.06 1061.03 1886.06 1035.03 2510.08 1035.03ZM2216.07 997.033 1688.06 997.033 1688.06 971.032 2216.07 971.032ZM2307.08 932.031 1940.06 932.031 1940.06 907.03 2307.08 907.03ZM2281.07 868.029 1678.06 868.029 1678.06 842.028 2281.07 842.028ZM2303.08 804.026 1721.06 804.026 1721.06 778.026 2303.08 778.026ZM2282.07 739.024 1590.05 739.024 1590.05 714.023 2282.07 714.023ZM2256.07 675.022 1696.06 675.022 1696.06 649.021 2256.07 649.021ZM2210.07 611.02 1513.05 611.02 1513.05 585.019 2210.07 585.019ZM2373.08 546.018 1722.06 546.018 1722.06 521.017 2373.08 521.017ZM2326.08 482.016 1674.05 482.016 1674.05 456.015 2326.08 456.015ZM2053.07 418.014 1546.05 418.014 1546.05 392.013 2053.07 392.013ZM2304.08 353.012 1515.05 353.012 1515.05 328.011 2304.08 328.011ZM2094.07 289.009 1420.05 289.009 1420.05 263.009 2094.07 263.009ZM2279.07 225.007 1557.05 225.007 1557.05 199.007 2279.07 199.007ZM2184.07 160.005 1552.05 160.005 1552.05 134.004 2184.07 134.004ZM2140.07 96.0032 1372.05 96.0032 1372.05 70.0023 2140.07 70.0023Z" fill="#DD6409"/></g><g><path d="M2628.09 1512.05 2430.08 1512.05 2430.08 1486.05 2628.09 1486.05ZM2628.09 1447.05 2447.08 1447.05 2447.08 1422.05 2628.09 1422.05ZM2628.09 1383.05 2427.08 1383.05 2427.08 1357.04 2628.09 1357.04ZM2628.09 1319.04 2534.08 1319.04 2534.08 1293.04 2628.09 1293.04ZM2628.09 1254.04 2422.08 1254.04 2422.08 1228.04 2628.09 1228.04ZM2628.09 1190.04 2479.08 1190.04 2479.08 1164.04 2628.09 1164.04ZM2628.09 1126.04 2324.08 1126.04 2324.08 1100.04 2628.09 1100.04ZM2628.09 1061.03 2510.08 1061.03 2510.08 1035.03 2628.09 1035.03ZM2628.09 997.033 2216.07 997.033 2216.07 971.032 2628.09 971.032ZM2628.09 932.031 2307.08 932.031 2307.08 907.03 2628.09 907.03ZM2628.09 868.029 2281.07 868.029 2281.07 842.028 2628.09 842.028ZM2628.09 804.026 2303.08 804.026 2303.08 778.026 2628.09 778.026ZM2628.09 739.024 2282.07 739.024 2282.07 714.023 2628.09 714.023ZM2628.09 675.022 2256.07 675.022 2256.07 649.021 2628.09 649.021ZM2628.09 611.02 2210.07 611.02 2210.07 585.019 2628.09 585.019ZM2628.09 546.018 2373.08 546.018 2373.08 521.017 2628.09 521.017ZM2628.09 482.016 2326.08 482.016 2326.08 456.015 2628.09 456.015ZM2628.09 418.014 2053.07 418.014 2053.07 392.013 2628.09 392.013ZM2628.09 353.012 2304.08 353.012 2304.08 328.011 2628.09 328.011ZM2628.09 289.009 2094.07 289.009 2094.07 263.009 2628.09 263.009ZM2628.09 225.007 2279.07 225.007 2279.07 199.007 2628.09 199.007ZM2628.09 160.005 2184.07 160.005 2184.07 134.004 2628.09 134.004ZM2628.09 96.0032 2140.07 96.0032 2140.07 70.0023 2628.09 70.0023Z" fill="#A6A6A6"/></g><g><path d="M0 0 0.000360892 1480" stroke="#D9D9D9" stroke-width="3.4375" stroke-linejoin="round" stroke-miterlimit="10" fill="none" fill-rule="evenodd" transform="matrix(1 0 0 -1 311.5 1530.5)"/></g><g><text font-family="Calibri,Calibri_MSFontService,sans-serif" font-weight="400" font-size="46" transform="matrix(1 0 0 1 283.921 1604)">0%</text></g><g><text font-family="Calibri,Calibri_MSFontService,sans-serif" font-weight="400" font-size="46" transform="matrix(1 0 0 1 503.964 1604)">10%</text></g><g><text font-family="Calibri,Calibri_MSFontService,sans-serif" font-weight="400" font-size="46" transform="matrix(1 0 0 1 735.626 1604)">20%</text></g><g><text font-family="Calibri,Calibri_MSFontService,sans-serif" font-weight="400" font-size="46" transform="matrix(1 0 0 1 967.288 1604)">30%</text></g><g><text font-family="Calibri,Calibri_MSFontService,sans-serif" font-weight="400" font-size="46" transform="matrix(1 0 0 1 1198.95 1604)">40%</text></g><g><text font-family="Calibri,Calibri_MSFontService,sans-serif" font-weight="400" font-size="46" transform="matrix(1 0 0 1 1430.61 1604)">50%</text></g><g><text font-family="Calibri,Calibri_MSFontService,sans-serif" font-weight="400" font-size="46" transform="matrix(1 0 0 1 1662.27 1604)">60%</text></g><g><text font-family="Calibri,Calibri_MSFontService,sans-serif" font-weight="400" font-size="46" transform="matrix(1 0 0 1 1893.93 1604)">70%</text></g><g><text font-family="Calibri,Calibri_MSFontService,sans-serif" font-weight="400" font-size="46" transform="matrix(1 0 0 1 2125.6 1604)">80%</text></g><g><text font-family="Calibri,Calibri_MSFontService,sans-serif" font-weight="400" font-size="46" transform="matrix(1 0 0 1 2357.26 1604)">90%</text></g><g><text font-family="Calibri,Calibri_MSFontService,sans-serif" font-weight="400" font-size="46" transform="matrix(1 0 0 1 2577.3 1604)">100%</text></g><g><text font-family="Calibri,Calibri_MSFontService,sans-serif" font-weight="400" font-size="50" transform="matrix(1 0 0 1 99.1353 1513)">Couture</text></g><g><text font-family="Calibri,Calibri_MSFontService,sans-serif" font-weight="400" font-size="50" transform="matrix(1 0 0 1 185.783 1449)">Pari</text></g><g><text font-family="Calibri,Calibri_MSFontService,sans-serif" font-weight="400" font-size="50" transform="matrix(1 0 0 1 123.107 1385)">Chasse</text></g><g><text font-family="Calibri,Calibri_MSFontService,sans-serif" font-weight="400" font-size="50" transform="matrix(1 0 0 1 105.048 1320)">Potager</text></g><g><text font-family="Calibri,Calibri_MSFontService,sans-serif" font-weight="400" font-size="50" transform="matrix(1 0 0 1 117.331 1256)">Cuisine</text></g><g><text font-family="Calibri,Calibri_MSFontService,sans-serif" font-weight="400" font-size="50" transform="matrix(1 0 0 1 76.1039 1191)">Bricolage</text></g><g><text font-family="Calibri,Calibri_MSFontService,sans-serif" font-weight="400" font-size="50" transform="matrix(1 0 0 1 60.5891 1127)">Collection</text></g><g><text font-family="Calibri,Calibri_MSFontService,sans-serif" font-weight="400" font-size="50" transform="matrix(1 0 0 1 142.792 1063)">Jardin</text></g><g><text font-family="Calibri,Calibri_MSFontService,sans-serif" font-weight="400" font-size="50" transform="matrix(1 0 0 1 131.54 998)">Dessin</text></g><g><text font-family="Calibri,Calibri_MSFontService,sans-serif" font-weight="400" font-size="50" transform="matrix(1 0 0 1 125.788 934)">Tuning</text></g><g><text font-family="Calibri,Calibri_MSFontService,sans-serif" font-weight="400" font-size="50" transform="matrix(1 0 0 1 138.667 870)">Danse</text></g><g><text font-family="Calibri,Calibri_MSFontService,sans-serif" font-weight="400" font-size="50" transform="matrix(1 0 0 1 175.654 805)">Jeux</text></g><g><text font-family="Calibri,Calibri_MSFontService,sans-serif" font-weight="400" font-size="50" transform="matrix(1 0 0 1 86.1876 741)">Musique</text></g><g><text font-family="Calibri,Calibri_MSFontService,sans-serif" font-weight="400" font-size="50" transform="matrix(1 0 0 1 89.8766 677)">Peinture</text></g><g><text font-family="Calibri,Calibri_MSFontService,sans-serif" font-weight="400" font-size="50" transform="matrix(1 0 0 1 104.016 612)">Ecriture</text></g><g><text font-family="Calibri,Calibri_MSFontService,sans-serif" font-weight="400" font-size="50" transform="matrix(1 0 0 1 116.277 548)">Poterie</text></g><g><text font-family="Calibri,Calibri_MSFontService,sans-serif" font-weight="400" font-size="50" transform="matrix(1 0 0 1 142.54 484)">Photo</text></g><g><text font-family="Calibri,Calibri_MSFontService,sans-serif" font-weight="400" font-size="50" transform="matrix(1 0 0 1 131.035 419)">Cirque</text></g><g><text font-family="Calibri,Calibri_MSFontService,sans-serif" font-weight="400" font-size="50" transform="matrix(1 0 0 1 116.208 355)">Journal</text></g><g><text font-family="Calibri,Calibri_MSFontService,sans-serif" font-weight="400" font-size="50" transform="matrix(1 0 0 1 105.277 291)">Théâtre</text></g><g><text font-family="Calibri,Calibri_MSFontService,sans-serif" font-weight="400" font-size="50" transform="matrix(1 0 0 1 33.9372 226)">Généalogie</text></g><g><text font-family="Calibri,Calibri_MSFontService,sans-serif" font-weight="400" font-size="50" transform="matrix(1 0 0 1 79.0834 162)">Montage</text></g><g><text font-family="Calibri,Calibri_MSFontService,sans-serif" font-weight="400" font-size="50" transform="matrix(1 0 0 1 91.3895 97)">Sciences</text></g><g><rect x="796" y="1662" width="24.9998" height="25.0001" fill="#0088EE"/></g><g><text font-family="Calibri,Calibri_MSFontService,sans-serif" font-weight="400" font-size="46" transform="matrix(1 0 0 1 832.023 1688)">Collège</text></g><g><rect x="1018" y="1662" width="25.0001" height="25.0001" fill="#76B54B"/></g><g><text font-family="Calibri,Calibri_MSFontService,sans-serif" font-weight="400" font-size="46" transform="matrix(1 0 0 1 1053.55 1688)">Lycée</text></g><g><rect x="1207" y="1662" width="25.0001" height="25.0001" fill="#F2BE00"/></g><g><text font-family="Calibri,Calibri_MSFontService,sans-serif" font-weight="400" font-size="46" transform="matrix(1 0 0 1 1243.26 1688)">Bac+2</text></g><g><rect x="1404" y="1662" width="25.0001" height="25.0001" fill="#DD6409"/></g><g><text font-family="Calibri,Calibri_MSFontService,sans-serif" font-weight="400" font-size="46" transform="matrix(1 0 0 1 1440.31 1688)">Supérieur</text></g><g><rect x="1670" y="1662" width="26.0001" height="25.0001" fill="#A6A6A6"/></g><g><text font-family="Calibri,Calibri_MSFontService,sans-serif" font-weight="400" font-size="46" transform="matrix(1 0 0 1 1706.4 1688)">En formation</text></g><rect x="0.499836" y="0.499836" width="2728" height="1744" stroke="#D9D9D9" stroke-width="3.4375" stroke-linejoin="round" stroke-miterlimit="10" fill="none"/></g></svg>